<?xml version="1.0" standalone="no"?>
<!DOCTYPE svg PUBLIC "-//W3C//DTD SVG 20010904//EN"
 "http://www.w3.org/TR/2001/REC-SVG-20010904/DTD/svg10.dtd">
<svg version="1.0" xmlns="http://www.w3.org/2000/svg"
 width="16.000000pt" height="16.000000pt" viewBox="0 0 16.000000 16.000000"
 preserveAspectRatio="xMidYMid meet">
<metadata>
Created by potrace 1.11, written by Peter Selinger 2001-2013
</metadata>
<g transform="translate(0.000000,16.000000) scale(0.003200,-0.003200)"
fill="#000000" stroke="none">
<path d="M2285 4304 c-16 -8 -52 -32 -80 -53 -133 -100 -197 -140 -400 -246
-431 -226 -710 -383 -798 -448 -246 -184 -375 -390 -361 -579 10 -145 110
-221 239 -184 37 11 63 27 88 55 35 39 37 44 51 166 6 50 25 105 42 126 8 8
14 19 14 24 0 4 20 35 44 69 66 91 237 261 376 372 86 69 285 214 293 214 3 0
-22 -42 -56 -93 -34 -51 -90 -139 -125 -197 -35 -58 -101 -168 -147 -245 -47
-77 -90 -149 -97 -160 -333 -553 -553 -789 -737 -789 -31 -1 -74 2 -97 6 -64
9 -94 -2 -145 -52 -42 -42 -48 -54 -54 -104 -9 -69 5 -107 57 -158 106 -104
339 -99 521 12 187 113 357 369 551 830 203 483 390 840 521 995 l26 30 -17
-40 c-92 -225 -287 -852 -307 -990 -3 -16 -13 -73 -22 -125 -20 -113 -23 -288
-6 -348 26 -92 103 -136 178 -102 85 38 141 127 485 770 56 105 165 293 247
426 73 119 193 295 198 291 1 -1 -21 -65 -49 -142 -91 -253 -190 -598 -232
-810 -15 -71 -29 -141 -32 -155 -3 -14 -7 -83 -9 -155 -5 -145 8 -224 47 -281
30 -44 65 -58 132 -51 76 7 143 47 241 142 99 97 167 181 272 340 161 243 204
327 195 381 -3 21 -39 44 -67 44 -22 0 -68 -45 -90 -87 -37 -71 -194 -313
-267 -411 -134 -179 -277 -300 -302 -255 -10 19 -1 123 20 213 37 161 136 438
239 670 91 204 328 659 370 710 26 32 74 127 80 158 17 99 -63 205 -154 204
-112 -2 -236 -93 -400 -292 -211 -257 -388 -536 -677 -1066 -168 -310 -245
-444 -255 -444 -14 0 25 162 73 305 53 157 189 494 254 630 67 140 153 293
235 416 108 165 149 241 151 281 5 131 -148 239 -257 182z"/>
<path d="M4399 3006 c-61 -33 -140 -121 -190 -211 -22 -40 -51 -80 -64 -89
-87 -57 -193 -102 -325 -137 -83 -22 -81 -22 -195 -45 -215 -43 -316 -86 -401
-169 -176 -174 -201 -453 -54 -602 61 -62 156 -69 230 -18 54 37 68 87 63 221
-4 90 -2 107 18 150 29 62 107 140 195 197 38 24 149 85 246 135 158 81 176
88 168 66 -5 -13 -12 -35 -15 -47 -2 -12 -13 -60 -24 -107 -11 -47 -22 -98
-24 -115 -3 -16 -8 -46 -11 -65 -3 -19 -8 -48 -11 -65 -70 -421 -113 -590
-191 -751 -64 -130 -170 -237 -262 -264 -65 -19 -159 -23 -207 -10 -85 24
-152 111 -134 173 5 16 26 57 49 91 62 96 55 183 -21 254 -44 41 -90 56 -147
48 -215 -29 -292 -407 -125 -611 145 -179 419 -213 662 -83 224 120 369 349
543 858 175 510 281 731 419 877 59 62 79 101 79 155 -1 144 -145 231 -271
164z"/>
<path d="M2032 2154 c-35 -7 -70 -18 -78 -25 -8 -6 -14 -9 -14 -5 0 8 -78 -40
-109 -68 -64 -57 -112 -169 -116 -269 -3 -89 34 -214 77 -262 18 -19 17 -20
-64 -40 -109 -28 -150 -48 -205 -104 -71 -70 -88 -117 -88 -236 0 -115 15
-167 77 -258 127 -188 306 -256 473 -178 102 47 171 121 209 225 23 59 27 147
11 201 l-12 41 101 -1 c126 -1 243 17 302 45 103 50 135 167 66 239 -67 69
-117 69 -232 0 -164 -99 -260 -129 -395 -124 -107 3 -125 -4 -125 -49 0 -39
11 -50 69 -71 60 -21 96 -49 115 -90 58 -122 -21 -290 -153 -329 -64 -19 -83
-20 -134 -5 -101 28 -149 137 -119 269 34 153 126 267 248 309 38 13 79 31 92
39 38 25 23 77 -33 108 -85 47 -76 178 21 305 83 109 191 178 256 164 34 -8
68 -49 68 -82 0 -65 -87 -162 -163 -182 -122 -31 -171 -123 -116 -221 25 -44
56 -61 120 -65 87 -6 210 74 248 159 31 71 33 79 36 161 7 169 -57 319 -159
372 -75 39 -175 49 -274 27z"/>
</g>
</svg>
