<?xml version="1.0" encoding="UTF-8" standalone="no"?>
<svg width="134px" height="54px" viewBox="0 0 134 54" version="1.1" xmlns="http://www.w3.org/2000/svg" xmlns:xlink="http://www.w3.org/1999/xlink">
    <!-- Generator: Sketch 41.2 (35397) - http://www.bohemiancoding.com/sketch -->
    <title>Artboard</title>
    <desc>Created with Sketch.</desc>
    <defs>
        <polygon id="path-1" points="0.53921871 27 20.4011929 27 20.4011929 0.486443815 0.53921871 0.486443815 0.53921871 27"></polygon>
        <polygon id="path-3" points="14.421 16.2672009 14.421 0.873886685 0.0487130955 0.873886685 0.0487130955 16.2672009 14.421 16.2672009"></polygon>
    </defs>
    <g id="Page-1" stroke="none" stroke-width="1" fill="none" fill-rule="evenodd">
        <g id="Artboard">
            <g id="Page-1" transform="translate(4.000000, 0.000000)">
                <path d="M34.0635,3.3853 C33.2185,4.7123 32.4285,6.0703 31.6925,7.4573 C30.9565,8.8463 30.2505,10.2513 29.5755,11.6753 C29.1405,12.6403 28.7245,13.6003 28.3265,14.5533 C27.9275,15.5063 27.5595,16.4893 27.2215,17.5033 C27.1495,17.7443 27.0285,18.1243 26.8605,18.6433 C26.6905,19.1623 26.5405,19.7053 26.4075,20.2723 C26.2745,20.8393 26.1835,21.3763 26.1355,21.8833 C26.0865,22.3903 26.1235,22.7283 26.2445,22.8973 C26.5345,22.8723 26.7995,22.7763 27.0415,22.6073 C27.2825,22.4393 27.5115,22.2573 27.7285,22.0643 C28.2835,21.5333 28.7965,20.9603 29.2675,20.3443 C29.7385,19.7293 30.1905,19.1083 30.6255,18.4803 C30.9615,17.9973 31.2825,17.5093 31.5845,17.0143 C31.8855,16.5203 32.1935,16.0193 32.5065,15.5123 C32.5795,15.3673 32.6695,15.1983 32.7785,15.0053 C32.8865,14.8123 33.0075,14.6373 33.1405,14.4803 C33.2725,14.3233 33.4295,14.2153 33.6115,14.1553 C33.7925,14.0943 34.0025,14.1243 34.2445,14.2443 C34.4615,14.3653 34.5705,14.5403 34.5705,14.7703 C34.5705,14.9993 34.5165,15.2463 34.4075,15.5123 C34.2985,15.7783 34.1665,16.0363 34.0095,16.2903 C33.8525,16.5433 33.7255,16.7423 33.6285,16.8873 C33.2915,17.4433 32.8445,18.1493 32.2905,19.0053 C31.7345,19.8623 31.1255,20.6953 30.4615,21.5033 C29.7975,22.3123 29.1045,23.0173 28.3795,23.6203 C27.6565,24.2243 26.9565,24.5373 26.2805,24.5623 C25.5805,24.6103 25.0805,24.3633 24.7785,23.8203 C24.4765,23.2773 24.3075,22.5713 24.2715,21.7023 C24.2355,20.8333 24.3015,19.8743 24.4705,18.8243 C24.6395,17.7753 24.8445,16.7553 25.0855,15.7653 C25.3275,14.7763 25.5625,13.8893 25.7925,13.1053 C26.0215,12.3213 26.1835,11.7723 26.2805,11.4573 C26.5455,10.5403 26.8355,9.6363 27.1495,8.7423 C27.4625,7.8503 27.7895,6.9573 28.1265,6.0643 C27.4995,6.8613 26.8965,7.7173 26.3175,8.6343 C25.7375,9.5513 25.1705,10.4803 24.6155,11.4213 C24.0605,12.3633 23.5295,13.3043 23.0225,14.2443 C22.5155,15.1863 22.0335,16.0793 21.5755,16.9243 C20.9225,18.1313 20.3685,19.1503 19.9095,19.9833 C19.4515,20.8153 19.0415,21.4853 18.6785,21.9913 C18.3165,22.4983 17.9915,22.8663 17.7015,23.0963 C17.4125,23.3243 17.1095,23.4403 16.7965,23.4403 C16.2415,23.4403 15.8365,23.2283 15.5845,22.8063 C15.3305,22.3843 15.1795,21.8353 15.1305,21.1593 C15.0835,20.4843 15.1195,19.7173 15.2405,18.8613 C15.3605,18.0043 15.5115,17.1543 15.6925,16.3083 C15.8735,15.4643 16.0785,14.6503 16.3075,13.8643 C16.5375,13.0813 16.7365,12.4233 16.9055,11.8923 C17.2675,10.7343 17.6405,9.5573 18.0275,8.3633 C18.4135,7.1683 18.8835,5.9323 19.4395,4.6523 C18.2805,6.1493 17.3395,7.5843 16.6155,8.9603 C15.8915,10.3353 15.2155,11.6993 14.5875,13.0503 C13.9605,14.4503 13.3575,15.8563 12.7785,17.2683 C12.1995,18.6793 11.5355,20.0613 10.7875,21.4123 C10.1355,22.5953 9.3395,23.7113 8.3985,24.7613 C7.4575,25.8113 6.3105,26.5403 4.9595,26.9503 C4.5975,27.0473 4.2105,27.1143 3.8005,27.1503 C3.3905,27.1863 2.9865,27.1803 2.5875,27.1323 C2.1905,27.0833 1.8095,26.9753 1.4485,26.8063 C1.0855,26.6373 0.7725,26.4073 0.5065,26.1183 C0.1685,25.7563 0.0005,25.3463 0.0005,24.8883 C0.0005,24.4293 0.1085,24.0193 0.3265,23.6563 C0.5425,23.2953 0.8505,23.0113 1.2495,22.8063 C1.6475,22.6013 2.0865,22.5713 2.5705,22.7153 C3.1725,22.8843 3.7585,22.8613 4.3265,22.6433 C4.8925,22.4263 5.4295,22.1183 5.9365,21.7203 C6.4435,21.3223 6.9085,20.8693 7.3305,20.3633 C7.7515,19.8563 8.1205,19.3983 8.4345,18.9873 C9.3995,17.7333 10.2865,16.4353 11.0945,15.0963 C11.9035,13.7563 12.7175,12.4113 13.5385,11.0593 C14.0935,10.1433 14.6545,9.2193 15.2215,8.2903 C15.7895,7.3623 16.3855,6.4503 17.0135,5.5573 C16.1205,6.1853 15.2405,6.8193 14.3715,7.4573 C13.5015,8.0973 12.6575,8.8033 11.8365,9.5753 C11.4265,9.9613 10.9985,10.3713 10.5515,10.8063 C10.1055,11.2403 9.6895,11.7053 9.3035,12.1993 C8.9175,12.6953 8.5905,13.2193 8.3265,13.7753 C8.0595,14.3293 7.9275,14.8973 7.9275,15.4763 C7.9275,16.1043 7.7345,16.5983 7.3485,16.9603 C6.9615,17.3223 6.5275,17.5393 6.0445,17.6123 C5.5625,17.6843 5.0915,17.6003 4.6335,17.3583 C4.1745,17.1173 3.8735,16.6833 3.7285,16.0553 C3.5845,15.5003 3.5525,14.9573 3.6375,14.4263 C3.7225,13.8963 3.8785,13.3823 4.1085,12.8873 C4.3375,12.3933 4.6215,11.9223 4.9595,11.4763 C5.2965,11.0303 5.6475,10.6253 6.0085,10.2633 C7.0945,9.2013 8.2775,8.3153 9.5565,7.6023 C10.8355,6.8913 12.1265,6.1853 13.4295,5.4853 C14.9985,4.6403 16.5065,3.8443 17.9555,3.0953 C19.4035,2.3483 20.7785,1.4543 22.0825,0.4163 C22.5155,0.0793 22.9805,-0.0527 23.4755,0.0193 C23.9695,0.0913 24.3855,0.2793 24.7245,0.5793 C25.0615,0.8823 25.2915,1.2683 25.4125,1.7383 C25.5325,2.2083 25.4485,2.6863 25.1585,3.1683 C24.6755,4.0133 24.1635,4.8273 23.6205,5.6123 C23.0775,6.3963 22.5765,7.2103 22.1185,8.0553 C21.4905,9.2133 20.9175,10.3903 20.3985,11.5843 C19.8785,12.7793 19.3785,13.9913 18.8965,15.2223 C18.4855,16.3083 18.1185,17.3403 17.7925,18.3183 C17.4655,19.2953 17.2545,20.2543 17.1585,21.1963 C17.5205,20.6893 17.9605,19.9643 18.4795,19.0233 C18.9985,18.0823 19.5235,17.1173 20.0545,16.1273 C20.2715,15.7413 20.5735,15.1863 20.9595,14.4623 C21.3445,13.7393 21.8035,12.9243 22.3345,12.0193 C22.8655,11.1143 23.4395,10.1603 24.0545,9.1583 C24.6695,8.1573 25.3155,7.1803 25.9915,6.2273 C26.6675,5.2743 27.3485,4.3803 28.0365,3.5483 C28.7245,2.7153 29.3935,2.0283 30.0455,1.4853 C30.6975,0.9423 31.3185,0.5793 31.9105,0.3993 C32.5015,0.2183 33.0255,0.2843 33.4845,0.5983 C33.9185,0.9113 34.1965,1.3403 34.3175,1.8833 C34.4375,2.4263 34.3535,2.9273 34.0635,3.3853" id="Fill-1" fill="#E48890"></path>
                <path d="M43.0771,11.7838 C43.0771,11.4458 43.0341,11.1138 42.9501,10.7878 C42.8651,10.4628 42.7021,10.2268 42.4621,10.0828 C42.0751,9.8168 41.6351,9.8648 41.1401,10.2268 C40.6451,10.5898 40.1751,11.0588 39.7281,11.6388 C39.2811,12.2188 38.8841,12.8098 38.5341,13.4128 C38.1831,14.0158 37.9481,14.4268 37.8281,14.6428 C37.4661,15.2948 37.1341,15.9648 36.8331,16.6528 C36.5301,17.3408 36.2951,18.0468 36.1271,18.7698 C36.0781,18.9638 36.0421,19.2178 36.0181,19.5298 C35.9941,19.8448 35.9941,20.1578 36.0181,20.4718 C36.0421,20.7858 36.1141,21.0688 36.2351,21.3218 C36.3551,21.5758 36.5491,21.7148 36.8141,21.7388 C37.2241,21.7868 37.5981,21.6608 37.9361,21.3578 C38.2741,21.0568 38.5521,20.7618 38.7691,20.4718 C39.2521,19.8448 39.6861,19.1928 40.0721,18.5168 C40.4581,17.8418 40.8201,17.1538 41.1581,16.4538 C41.5201,15.6568 41.8761,14.8248 42.2261,13.9558 C42.5761,13.0868 42.8591,12.3628 43.0771,11.7838 M48.0721,11.3858 C47.6621,12.1338 47.2581,12.8758 46.8591,13.6118 C46.4621,14.3478 46.0941,15.1018 45.7561,15.8748 C45.5621,16.3328 45.3761,16.7978 45.1941,17.2678 C45.0141,17.7388 44.8501,18.2158 44.7061,18.6978 C44.5851,19.1078 44.4401,19.5848 44.2711,20.1278 C44.1021,20.6708 44.0781,21.1718 44.1991,21.6298 C44.5611,21.4848 44.9171,21.2498 45.2661,20.9248 C45.6161,20.5978 45.9421,20.2358 46.2441,19.8388 C46.5461,19.4398 46.8291,19.0298 47.0951,18.6068 C47.3601,18.1848 47.5901,17.8288 47.7831,17.5398 C48.0721,17.1048 48.3551,16.6648 48.6341,16.2188 C48.9111,15.7718 49.1821,15.3188 49.4481,14.8608 C49.5441,14.6918 49.6831,14.5348 49.8641,14.3898 C50.0451,14.2448 50.2261,14.1548 50.4071,14.1188 C50.5881,14.0828 50.7511,14.1128 50.8961,14.2088 C51.0411,14.3048 51.1251,14.4988 51.1491,14.7888 C51.1971,15.1018 51.1071,15.4338 50.8781,15.7838 C50.6481,16.1338 50.4621,16.4298 50.3161,16.6708 C50.0031,17.1538 49.6041,17.7748 49.1221,18.5348 C48.6391,19.2958 48.1081,20.0248 47.5291,20.7248 C46.9501,21.4258 46.3521,22.0348 45.7371,22.5538 C45.1221,23.0718 44.5371,23.3438 43.9821,23.3678 C43.6201,23.3908 43.2811,23.2888 42.9691,23.0598 C42.6541,22.8298 42.3651,22.5348 42.0991,22.1728 C41.8341,21.8108 41.6041,21.4188 41.4121,20.9968 C41.2191,20.5748 41.0731,20.1578 40.9771,19.7478 L40.4711,20.5438 C40.1331,21.0508 39.7401,21.5638 39.2941,22.0828 C38.8481,22.6008 38.3221,22.9808 37.7201,23.2218 C37.1881,23.4398 36.6811,23.4878 36.1991,23.3678 C35.7161,23.2468 35.2691,23.0238 34.8591,22.6978 C34.4491,22.3718 34.0871,21.9798 33.7731,21.5208 C33.4601,21.0628 33.2061,20.6158 33.0141,20.1818 C32.5791,19.1688 32.3801,18.1728 32.4161,17.1958 C32.4521,16.2188 32.6391,15.2218 32.9771,14.2088 C33.2421,13.3888 33.5871,12.6108 34.0091,11.8748 C34.4311,11.1378 34.9441,10.4568 35.5481,9.8288 C36.0061,9.3458 36.5371,8.9298 37.1401,8.5798 C37.7431,8.2298 38.3711,7.9828 39.0221,7.8378 C39.6741,7.6928 40.3441,7.6568 41.0311,7.7288 C41.7201,7.8018 42.3771,8.0188 43.0051,8.3808 C43.2451,8.5258 43.4571,8.7198 43.6381,8.9608 C43.8191,9.2018 43.9701,9.4668 44.0911,9.7568 C44.2111,9.5638 44.3441,9.3708 44.4881,9.1778 C44.6341,8.9838 44.8021,8.8148 44.9951,8.6708 C45.4301,8.3328 45.8881,8.1938 46.3711,8.2548 C46.8531,8.3148 47.2691,8.4958 47.6201,8.7978 C47.9701,9.0988 48.2051,9.4848 48.3261,9.9558 C48.4461,10.4268 48.3621,10.9028 48.0721,11.3858" id="Fill-3" fill="#E48890"></path>
                <path d="M61.5742,10.5533 C60.9472,11.4213 60.3442,12.3083 59.7642,13.2133 C59.1852,14.1183 58.6542,15.0413 58.1722,15.9833 C57.8582,16.5623 57.5742,17.1543 57.3212,17.7563 C57.0672,18.3603 56.8452,18.9753 56.6512,19.6033 C56.6022,19.7243 56.5492,19.8863 56.4882,20.0913 C56.4282,20.2963 56.3802,20.5073 56.3442,20.7253 C56.3072,20.9423 56.3022,21.1413 56.3262,21.3223 C56.3492,21.5033 56.4342,21.6293 56.5792,21.7023 C56.8452,21.8473 57.1282,21.8603 57.4292,21.7393 C57.7312,21.6173 58.0202,21.4313 58.2992,21.1773 C58.5762,20.9243 58.8422,20.6343 59.0952,20.3083 C59.3482,19.9833 59.5592,19.6993 59.7282,19.4573 C60.1382,18.9033 60.5242,18.3243 60.8872,17.7203 C61.2492,17.1173 61.5982,16.5143 61.9362,15.9103 C62.0092,15.7653 62.0992,15.5843 62.2082,15.3673 C62.3162,15.1503 62.4372,14.9393 62.5702,14.7343 C62.7022,14.5293 62.8592,14.3663 63.0412,14.2443 C63.2212,14.1243 63.4212,14.0883 63.6372,14.1363 C64.0952,14.2333 64.2952,14.5043 64.2352,14.9503 C64.1752,15.3983 64.0062,15.8803 63.7282,16.3993 C63.4512,16.9183 63.1362,17.4073 62.7872,17.8653 C62.4372,18.3243 62.2142,18.6253 62.1172,18.7703 C61.8032,19.2293 61.4662,19.7293 61.1042,20.2723 C60.7422,20.8153 60.3382,21.3223 59.8912,21.7923 C59.4442,22.2633 58.9622,22.6553 58.4432,22.9693 C57.9242,23.2823 57.3512,23.4403 56.7232,23.4403 C56.0232,23.4403 55.4692,23.1993 55.0582,22.7153 C54.6482,22.2333 54.3462,21.6653 54.1532,21.0143 C53.7672,19.6633 53.7132,18.3423 53.9912,17.0503 C54.2672,15.7603 54.6842,14.4753 55.2402,13.1963 L55.5652,12.3633 C55.2032,12.4113 54.7812,12.4233 54.2992,12.3993 C53.8152,12.3753 53.3452,12.2663 52.8862,12.0733 L51.6922,14.3543 C51.5712,14.5473 51.4572,14.7643 51.3482,15.0053 C51.2392,15.2463 51.1002,15.4513 50.9312,15.6203 C50.6662,15.8373 50.3772,15.8863 50.0632,15.7653 C49.7492,15.6453 49.5682,15.4153 49.5202,15.0773 C49.4962,14.8363 49.5502,14.6073 49.6832,14.3903 C49.8152,14.1723 49.9422,13.9683 50.0632,13.7753 C50.1592,13.6063 50.2862,13.3823 50.4432,13.1053 C50.5992,12.8273 50.7572,12.5433 50.9142,12.2543 C51.0702,11.9643 51.2032,11.6933 51.3122,11.4403 C51.4212,11.1863 51.4742,10.9873 51.4742,10.8423 C51.4742,10.4563 51.3662,10.0223 51.1492,9.5393 C50.9312,9.0573 50.7512,8.6473 50.6062,8.3083 C50.3882,7.8013 50.3352,7.2583 50.4432,6.6793 C50.5522,6.1003 50.7692,5.5753 51.0952,5.1053 C51.4212,4.6343 51.8312,4.2603 52.3262,3.9833 C52.8202,3.7053 53.3332,3.6393 53.8642,3.7833 C54.4912,3.9283 54.9502,4.2843 55.2402,4.8513 C55.5292,5.4183 55.5652,5.9913 55.3482,6.5713 C54.8422,7.9473 54.2622,9.2853 53.6102,10.5893 C54.0692,10.7343 54.5702,10.7943 55.1132,10.7703 C55.6562,10.7463 56.1322,10.6613 56.5432,10.5163 C56.9772,9.8173 57.3392,9.2323 57.6292,8.7613 C57.9192,8.2903 58.2312,7.9223 58.5702,7.6573 C59.0282,7.2943 59.5112,7.1503 60.0182,7.2223 C60.5242,7.2943 60.9532,7.5003 61.3032,7.8373 C61.6522,8.1763 61.8762,8.5923 61.9722,9.0863 C62.0692,9.5813 61.9362,10.0703 61.5742,10.5533" id="Fill-5" fill="#E48890"></path>
                <path d="M67.0762,3.9644 C67.0762,3.3134 67.3112,2.7514 67.7822,2.2804 C68.2532,1.8114 68.8022,1.5754 69.4302,1.5754 C70.0812,1.5754 70.6412,1.8114 71.1122,2.2804 C71.5832,2.7514 71.8182,3.3134 71.8182,3.9644 C71.8182,4.5924 71.5832,5.1414 71.1122,5.6114 C70.6412,6.0824 70.0812,6.3184 69.4302,6.3184 C68.8022,6.3184 68.2532,6.0824 67.7822,5.6114 C67.3112,5.1414 67.0762,4.5924 67.0762,3.9644 L67.0762,3.9644 Z M66.4972,15.5844 C66.2312,16.1154 65.9842,16.6404 65.7552,17.1584 C65.5252,17.6784 65.3032,18.2154 65.0852,18.7704 C65.0132,18.9634 64.9102,19.1984 64.7772,19.4764 C64.6442,19.7534 64.5242,20.0364 64.4162,20.3264 C64.3062,20.6154 64.2282,20.8884 64.1802,21.1414 C64.1322,21.3944 64.1682,21.5694 64.2892,21.6654 C64.4812,21.8354 64.7962,21.7634 65.2302,21.4484 C65.6652,21.1354 66.1112,20.7424 66.5692,20.2724 C67.0272,19.8014 67.4502,19.3374 67.8372,18.8784 C68.2222,18.4204 68.4642,18.1314 68.5602,18.0104 C68.8982,17.5754 69.2182,17.1414 69.5192,16.7064 C69.8212,16.2724 70.1172,15.8254 70.4062,15.3674 C70.5032,15.2224 70.6112,15.0474 70.7322,14.8424 C70.8522,14.6374 70.9982,14.4624 71.1672,14.3184 C71.3352,14.1724 71.5112,14.0884 71.6912,14.0644 C71.8732,14.0404 72.0722,14.1494 72.2892,14.3904 C72.5552,14.7034 72.5912,15.0294 72.3972,15.3674 C72.2042,15.7054 72.0232,16.0074 71.8542,16.2724 C71.1062,17.3824 70.3342,18.3844 69.5382,19.2774 C68.7412,20.1704 67.9212,21.0024 67.0762,21.7754 C66.7152,22.1124 66.3092,22.4504 65.8632,22.7884 C65.4172,23.1254 64.9282,23.3184 64.3972,23.3674 C63.9872,23.4154 63.6252,23.3674 63.3112,23.2224 C62.9982,23.0774 62.7202,22.8784 62.4792,22.6254 C62.2382,22.3714 62.0332,22.0824 61.8632,21.7564 C61.6952,21.4314 61.5622,21.0994 61.4662,20.7614 C61.2972,20.2544 61.2362,19.6994 61.2842,19.0964 C61.3332,18.4924 61.4352,17.8964 61.5922,17.3044 C61.7492,16.7134 61.9422,16.1334 62.1712,15.5664 C62.4002,14.9994 62.6112,14.4754 62.8052,13.9914 C63.1902,13.0274 63.5112,12.2354 63.7632,11.6204 C64.0172,11.0054 64.2282,10.5164 64.3972,10.1544 C64.5662,9.7924 64.7052,9.5214 64.8132,9.3404 C64.9232,9.1584 65.0492,9.0084 65.1942,8.8874 C65.6042,8.5264 66.0512,8.3574 66.5332,8.3804 C67.0152,8.4044 67.4442,8.5564 67.8182,8.8334 C68.1922,9.1104 68.4582,9.4794 68.6152,9.9374 C68.7712,10.3964 68.7292,10.8784 68.4882,11.3854 L66.4972,15.5844 Z" id="Fill-7" fill="#E48890"></path>
                <path d="M78.623,13.0142 C78.913,12.8462 79.179,12.6522 79.42,12.4352 C79.661,12.2182 79.866,11.9522 80.035,11.6392 C80.107,11.5422 80.18,11.4042 80.253,11.2222 C80.325,11.0412 80.373,10.8612 80.397,10.6792 C80.421,10.4982 80.409,10.3412 80.361,10.2082 C80.312,10.0762 80.18,9.9972 79.963,9.9732 C79.576,9.9502 79.196,10.0582 78.822,10.2992 C78.448,10.5402 78.099,10.8422 77.772,11.2042 C77.447,11.5662 77.157,11.9472 76.904,12.3442 C76.65,12.7432 76.439,13.0752 76.27,13.3402 C75.764,14.1602 75.317,15.0182 74.932,15.9102 C74.545,16.8032 74.315,17.7332 74.243,18.6982 C74.219,19.0112 74.23,19.3492 74.279,19.7112 C74.328,20.0732 74.425,20.4052 74.569,20.7062 C74.714,21.0082 74.907,21.2562 75.148,21.4492 C75.39,21.6422 75.691,21.7392 76.054,21.7392 C76.487,21.7392 76.91,21.6542 77.32,21.4852 C77.73,21.3172 78.117,21.0932 78.478,20.8152 C78.841,20.5382 79.179,20.2362 79.492,19.9102 C79.806,19.5842 80.096,19.2652 80.361,18.9512 C80.771,18.4682 81.169,17.9612 81.556,17.4302 C81.941,16.9002 82.304,16.3572 82.642,15.8012 C82.737,15.6572 82.858,15.4522 83.004,15.1862 C83.148,14.9212 83.311,14.6862 83.492,14.4802 C83.673,14.2762 83.872,14.1432 84.09,14.0822 C84.307,14.0222 84.536,14.1242 84.777,14.3902 C84.946,14.5832 85.007,14.8062 84.958,15.0602 C84.91,15.3132 84.813,15.5662 84.669,15.8202 C84.524,16.0732 84.361,16.3212 84.18,16.5622 C83.999,16.8032 83.86,16.9962 83.764,17.1412 C83.353,17.7202 82.919,18.2822 82.461,18.8252 C82.002,19.3682 81.519,19.8802 81.013,20.3632 C80.675,20.7012 80.325,21.0332 79.963,21.3582 C79.601,21.6842 79.215,21.9922 78.805,22.2822 C78.394,22.5712 77.966,22.8182 77.519,23.0242 C77.072,23.2282 76.608,23.3682 76.126,23.4402 C75.498,23.5122 74.894,23.4522 74.315,23.2582 C73.736,23.0652 73.212,22.7762 72.741,22.3902 C72.27,22.0042 71.854,21.5512 71.492,21.0332 C71.13,20.5142 70.852,19.9772 70.659,19.4212 C70.273,18.3352 70.165,17.2562 70.334,16.1822 C70.503,15.1082 70.792,14.0522 71.202,13.0142 C71.54,12.0972 71.993,11.2772 72.561,10.5532 C73.127,9.8282 73.797,9.1652 74.569,8.5622 C75.027,8.2242 75.583,7.9642 76.234,7.7842 C76.886,7.6022 77.543,7.5252 78.207,7.5482 C78.871,7.5732 79.498,7.7112 80.09,7.9642 C80.681,8.2182 81.144,8.6112 81.483,9.1412 C81.894,9.7922 82.122,10.4932 82.171,11.2412 C82.219,11.9892 82.135,12.7252 81.918,13.4492 C81.846,13.7142 81.742,14.0222 81.61,14.3712 C81.477,14.7222 81.326,15.0662 81.157,15.4042 C80.988,15.7422 80.796,16.0492 80.578,16.3272 C80.361,16.6042 80.119,16.8152 79.854,16.9602 C79.54,17.1292 79.221,17.2132 78.894,17.2132 C78.569,17.2132 78.262,17.1412 77.972,16.9962 C77.683,16.8512 77.44,16.6472 77.248,16.3812 C77.055,16.1162 76.934,15.8012 76.886,15.4402 C76.789,14.8122 76.934,14.3182 77.32,13.9552 C77.706,13.5932 78.141,13.2802 78.623,13.0142" id="Fill-9" fill="#E48890"></path>
                <path d="M93.4287,11.7838 C93.4287,11.4458 93.3857,11.1138 93.3017,10.7878 C93.2167,10.4628 93.0537,10.2268 92.8137,10.0828 C92.4267,9.8168 91.9867,9.8648 91.4917,10.2268 C90.9967,10.5898 90.5267,11.0588 90.0797,11.6388 C89.6327,12.2188 89.2357,12.8098 88.8857,13.4128 C88.5347,14.0158 88.2997,14.4268 88.1797,14.6428 C87.8177,15.2948 87.4857,15.9648 87.1847,16.6528 C86.8817,17.3408 86.6467,18.0468 86.4787,18.7698 C86.4297,18.9638 86.3937,19.2178 86.3697,19.5298 C86.3457,19.8448 86.3457,20.1578 86.3697,20.4718 C86.3937,20.7858 86.4657,21.0688 86.5867,21.3218 C86.7067,21.5758 86.9007,21.7148 87.1657,21.7388 C87.5757,21.7868 87.9497,21.6608 88.2877,21.3578 C88.6257,21.0568 88.9037,20.7618 89.1207,20.4718 C89.6037,19.8448 90.0377,19.1928 90.4237,18.5168 C90.8097,17.8418 91.1717,17.1538 91.5097,16.4538 C91.8717,15.6568 92.2277,14.8248 92.5777,13.9558 C92.9277,13.0868 93.2107,12.3628 93.4287,11.7838 M98.4237,11.3858 C98.0137,12.1338 97.6097,12.8758 97.2107,13.6118 C96.8137,14.3478 96.4457,15.1018 96.1077,15.8748 C95.9137,16.3328 95.7277,16.7978 95.5457,17.2678 C95.3657,17.7388 95.2017,18.2158 95.0577,18.6978 C94.9367,19.1078 94.7917,19.5848 94.6227,20.1278 C94.4537,20.6708 94.4297,21.1718 94.5507,21.6298 C94.9127,21.4848 95.2687,21.2498 95.6177,20.9248 C95.9677,20.5978 96.2937,20.2358 96.5957,19.8388 C96.8977,19.4398 97.1807,19.0298 97.4467,18.6068 C97.7117,18.1848 97.9417,17.8288 98.1347,17.5398 C98.4237,17.1048 98.7067,16.6648 98.9857,16.2188 C99.2627,15.7718 99.5337,15.3188 99.7997,14.8608 C99.8957,14.6918 100.0347,14.5348 100.2157,14.3898 C100.3967,14.2448 100.5777,14.1548 100.7587,14.1188 C100.9397,14.0828 101.1027,14.1128 101.2477,14.2088 C101.3927,14.3048 101.4767,14.4988 101.5007,14.7888 C101.5487,15.1018 101.4587,15.4338 101.2297,15.7838 C100.9997,16.1338 100.8137,16.4298 100.6677,16.6708 C100.3547,17.1538 99.9557,17.7748 99.4737,18.5348 C98.9907,19.2958 98.4597,20.0248 97.8807,20.7248 C97.3017,21.4258 96.7037,22.0348 96.0887,22.5538 C95.4737,23.0718 94.8887,23.3438 94.3337,23.3678 C93.9717,23.3908 93.6327,23.2888 93.3207,23.0598 C93.0057,22.8298 92.7167,22.5348 92.4507,22.1728 C92.1857,21.8108 91.9557,21.4188 91.7637,20.9968 C91.5707,20.5748 91.4247,20.1578 91.3287,19.7478 L90.8227,20.5438 C90.4847,21.0508 90.0917,21.5638 89.6457,22.0828 C89.1997,22.6008 88.6737,22.9808 88.0717,23.2218 C87.5397,23.4398 87.0327,23.4878 86.5507,23.3678 C86.0677,23.2468 85.6207,23.0238 85.2107,22.6978 C84.8007,22.3718 84.4387,21.9798 84.1247,21.5208 C83.8117,21.0628 83.5577,20.6158 83.3657,20.1818 C82.9307,19.1688 82.7317,18.1728 82.7677,17.1958 C82.8037,16.2188 82.9907,15.2218 83.3287,14.2088 C83.5937,13.3888 83.9387,12.6108 84.3607,11.8748 C84.7827,11.1378 85.2957,10.4568 85.8997,9.8288 C86.3577,9.3458 86.8887,8.9298 87.4917,8.5798 C88.0947,8.2298 88.7227,7.9828 89.3737,7.8378 C90.0257,7.6928 90.6957,7.6568 91.3827,7.7288 C92.0717,7.8018 92.7287,8.0188 93.3567,8.3808 C93.5967,8.5258 93.8087,8.7198 93.9897,8.9608 C94.1707,9.2018 94.3217,9.4668 94.4427,9.7568 C94.5627,9.5638 94.6957,9.3708 94.8397,9.1778 C94.9857,8.9838 95.1537,8.8148 95.3467,8.6708 C95.7817,8.3328 96.2397,8.1938 96.7227,8.2548 C97.2047,8.3148 97.6207,8.4958 97.9717,8.7978 C98.3217,9.0988 98.5567,9.4848 98.6777,9.9558 C98.7977,10.4268 98.7137,10.9028 98.4237,11.3858" id="Fill-11" fill="#E48890"></path>
                <path d="M104.5049,21.0142 C104.1189,19.6632 104.0649,18.3422 104.3429,17.0502 C104.6189,15.7602 105.0359,14.4752 105.5919,13.1962 L105.9169,12.3632 C105.7959,12.3872 105.6759,12.3992 105.5549,12.3992 L105.1929,12.3992 C104.6619,12.3992 104.1799,12.3392 103.7449,12.2182 L103.2379,12.0732 L102.0439,14.3542 C101.9229,14.5472 101.8089,14.7642 101.6999,15.0052 C101.5909,15.2462 101.4519,15.4522 101.2829,15.6202 C101.0179,15.8372 100.7289,15.8862 100.4149,15.7652 C100.1009,15.6452 99.9199,15.4152 99.8719,15.0772 C99.8479,14.8362 99.9009,14.6072 100.0349,14.3902 C100.1669,14.1722 100.2939,13.9682 100.4149,13.7752 C100.5109,13.6062 100.6509,13.3652 100.8309,13.0502 C101.0119,12.7372 101.1929,12.4112 101.3739,12.0732 C101.5549,11.7362 101.7179,11.4212 101.8619,11.1322 C102.0079,10.8422 102.0919,10.6252 102.1159,10.4802 C102.0439,10.0942 101.8679,9.7202 101.5909,9.3582 C101.3139,8.9962 101.1029,8.6472 100.9579,8.3082 C100.7399,7.8012 100.6869,7.2582 100.7949,6.6792 C100.9029,6.1002 101.1209,5.5762 101.4459,5.1052 C101.7729,4.6342 102.1829,4.2602 102.6779,3.9832 C103.1719,3.7052 103.6849,3.6392 104.2159,3.7842 C104.8429,3.9282 105.3019,4.2852 105.5919,4.8512 C105.8809,5.4182 105.9169,5.9922 105.6999,6.5712 C105.1929,7.9472 104.6139,9.2852 103.9619,10.5892 C104.2999,10.7102 104.7459,10.7582 105.3019,10.7342 C105.5429,10.7342 105.8029,10.7222 106.0799,10.6982 C106.3579,10.6732 106.6289,10.6142 106.8949,10.5162 L107.3289,9.7922 C107.5459,9.4542 107.7809,9.0802 108.0349,8.6702 C108.2879,8.2602 108.5829,7.9222 108.9219,7.6572 C109.3799,7.2942 109.8629,7.1502 110.3699,7.2222 C110.8759,7.2942 111.3049,7.5002 111.6539,7.8372 C112.0039,8.1762 112.2279,8.5922 112.3239,9.0862 C112.4209,9.5812 112.2879,10.0702 111.9259,10.5532 C111.2989,11.4212 110.6949,12.3082 110.1159,13.2132 C109.5369,14.1182 109.0059,15.0412 108.5239,15.9832 C108.2099,16.5622 107.9259,17.1542 107.6729,17.7562 C107.4189,18.3602 107.1959,18.9752 107.0029,19.6032 C106.9539,19.7242 106.8949,19.9052 106.8219,20.1462 C106.7499,20.3872 106.7069,20.6342 106.6949,20.8882 C106.6829,21.1412 106.7069,21.3652 106.7679,21.5572 C106.8279,21.7502 106.9899,21.8472 107.2569,21.8472 C107.5939,21.9192 107.9679,21.6722 108.3789,21.1052 C108.7889,20.5382 109.1569,19.8682 109.4829,19.0962 C109.8089,18.3242 110.0499,17.5512 110.2069,16.7792 C110.3629,16.0072 110.3579,15.4522 110.1889,15.1142 C110.0199,14.7762 110.0669,14.5232 110.3329,14.3542 C110.5989,14.1852 110.9179,14.1432 111.2929,14.2272 C111.6669,14.3122 112.0349,14.5402 112.3969,14.9142 C112.7589,15.2892 112.9399,15.8622 112.9399,16.6342 C112.9399,17.3102 112.7819,18.0582 112.4689,18.8782 C112.1549,19.7002 111.7209,20.4532 111.1659,21.1412 C110.6099,21.8282 109.9409,22.3902 109.1569,22.8252 C108.3719,23.2582 107.5329,23.4272 106.6409,23.3312 C106.0369,23.2102 105.5729,22.9332 105.2469,22.4982 C104.9219,22.0642 104.6739,21.5702 104.5049,21.0142" id="Fill-13" fill="#E48890"></path>
                <path d="M51.8555,26.44 C50.9385,27.309 50.1965,28.317 49.6295,29.463 C49.0625,30.61 48.5615,31.762 48.1265,32.92 C47.5725,34.321 47.0655,35.72 46.6075,37.12 C46.1485,38.519 45.6055,39.907 44.9785,41.282 C44.4225,42.513 43.7345,43.647 42.9155,44.685 C42.0935,45.722 41.0325,46.506 39.7295,47.038 C39.0775,47.303 38.4085,47.478 37.7195,47.563 C37.0325,47.647 36.3625,47.624 35.7105,47.491 C35.0595,47.358 34.4495,47.104 33.8825,46.731 C33.3155,46.356 32.8385,45.856 32.4535,45.228 C32.1875,44.77 32.0015,44.245 31.8915,43.653 C31.7835,43.063 31.7655,42.465 31.8375,41.862 C31.9105,41.258 32.0785,40.698 32.3445,40.178 C32.6095,39.66 32.9965,39.254 33.5025,38.965 C34.0095,38.676 34.4985,38.592 34.9685,38.711 C35.4395,38.833 35.8315,39.069 36.1455,39.419 C36.4595,39.768 36.6455,40.19 36.7065,40.685 C36.7665,41.18 36.6165,41.657 36.2535,42.115 C35.9405,42.501 35.7295,42.881 35.6205,43.255 C35.5115,43.629 35.6385,44.034 36.0015,44.467 C36.4835,45.024 37.0865,45.313 37.8105,45.336 C38.5345,45.36 39.2095,45.252 39.8375,45.01 C40.2725,44.842 40.6585,44.6 40.9965,44.287 C41.3345,43.973 41.6415,43.624 41.9185,43.237 C42.1965,42.851 42.4375,42.44 42.6435,42.006 C42.8475,41.572 43.0235,41.137 43.1675,40.704 C43.5305,39.739 43.8135,38.743 44.0185,37.717 C44.2235,36.692 44.4115,35.666 44.5805,34.639 C44.7485,33.614 44.9235,32.594 45.1045,31.581 C45.2865,30.567 45.5335,29.566 45.8465,28.577 C45.5815,28.721 45.3275,28.86 45.0865,28.993 C44.8445,29.126 44.6035,29.253 44.3625,29.373 C43.9045,29.614 43.4035,29.868 42.8605,30.133 C42.3175,30.399 41.7865,30.688 41.2675,31.002 C40.7485,31.315 40.2655,31.666 39.8195,32.051 C39.3735,32.438 39.0295,32.872 38.7885,33.354 C38.5705,33.741 38.4735,34.145 38.4985,34.567 C38.5225,34.99 38.5465,35.413 38.5705,35.835 C38.5945,36.256 38.5465,36.649 38.4255,37.01 C38.3045,37.373 37.9915,37.674 37.4845,37.916 C37.0745,38.11 36.6885,38.175 36.3265,38.115 C35.9645,38.055 35.6385,37.911 35.3485,37.68 C35.0595,37.452 34.8185,37.162 34.6255,36.811 C34.4315,36.461 34.2875,36.106 34.1905,35.744 C33.9495,34.73 34.0155,33.729 34.3895,32.739 C34.7635,31.751 35.3365,30.929 36.1095,30.278 C36.5675,29.916 37.0625,29.626 37.5935,29.409 C38.1245,29.192 38.6675,29.023 39.2225,28.902 C39.7775,28.782 40.3325,28.667 40.8875,28.558 C41.4425,28.45 41.9975,28.323 42.5525,28.178 C43.2515,27.985 43.9765,27.744 44.7245,27.454 C45.4725,27.165 46.1485,26.779 46.7515,26.295 C46.8965,25.983 47.0715,25.644 47.2765,25.282 C47.4815,24.92 47.7165,24.577 47.9825,24.251 C48.2485,23.924 48.5375,23.641 48.8515,23.4 C49.1655,23.159 49.5145,22.99 49.9015,22.893 C50.4085,22.772 50.8665,22.821 51.2765,23.038 C51.6865,23.254 51.9945,23.557 52.2005,23.943 C52.4045,24.329 52.4895,24.752 52.4535,25.21 C52.4175,25.669 52.2175,26.079 51.8555,26.44" id="Fill-15" fill="#E48890"></path>
                <g id="Group-19" transform="translate(44.000000, 26.071700)">
                    <mask id="mask-2" fill="white">
                        <use xlink:href="#path-1"></use>
                    </mask>
                    <g id="Clip-18"></g>
                    <path d="M13.4307,6.2336 C13.5987,6.0886 13.7677,5.9506 13.9377,5.8176 C14.1057,5.6856 14.2747,5.5346 14.4447,5.3656 C14.1057,5.2936 13.7557,5.4016 13.3947,5.6906 C13.0327,5.9806 12.6887,6.3376 12.3627,6.7586 C12.0367,7.1816 11.7467,7.6046 11.4937,8.0266 C11.2407,8.4486 11.0527,8.7686 10.9327,8.9856 C10.8117,9.1786 10.6177,9.5286 10.3537,10.0356 C10.0877,10.5426 9.8527,11.0736 9.6477,11.6286 C9.4427,12.1826 9.3157,12.6906 9.2677,13.1476 C9.2187,13.6066 9.3757,13.8846 9.7387,13.9816 C10.1487,14.1026 10.5587,14.0536 10.9687,13.8366 C11.3787,13.6186 11.7657,13.3056 12.1267,12.8956 C12.4897,12.4856 12.8207,12.0146 13.1227,11.4836 C13.4237,10.9526 13.6897,10.4206 13.9187,9.8896 C14.1487,9.3606 14.3347,8.8716 14.4807,8.4246 C14.6247,7.9776 14.7087,7.6336 14.7337,7.3926 C14.4677,7.5866 14.2087,7.6646 13.9547,7.6286 C13.7017,7.5916 13.5027,7.5016 13.3587,7.3566 C13.2127,7.2126 13.1347,7.0366 13.1227,6.8316 C13.1107,6.6266 13.2127,6.4276 13.4307,6.2336 M17.2677,9.9996 C17.0747,10.6026 16.8027,11.2236 16.4527,11.8636 C16.1027,12.5036 15.6807,13.1006 15.1857,13.6556 C14.6917,14.2106 14.1357,14.6866 13.5207,15.0856 C12.9057,15.4836 12.2597,15.7316 11.5837,15.8276 C11.5837,15.8996 11.6867,15.9656 11.8917,16.0266 C12.0967,16.0876 12.3317,16.1476 12.5977,16.2076 C12.8637,16.2676 13.1227,16.3216 13.3757,16.3706 C13.6297,16.4196 13.7917,16.4546 13.8647,16.4786 C14.1547,16.5756 14.3537,16.7506 14.4617,17.0036 C14.5707,17.2566 14.5397,17.5046 14.3707,17.7456 C14.2747,17.9146 14.1487,18.0226 13.9917,18.0716 C13.8337,18.1206 13.6777,18.1376 13.5207,18.1266 C13.3637,18.1136 13.2007,18.0946 13.0327,18.0716 C12.8637,18.0466 12.7057,18.0466 12.5617,18.0716 C11.9097,18.1206 11.2457,18.2646 10.5707,18.5056 C9.8947,18.7476 9.2487,19.0536 8.6337,19.4286 C8.0187,19.8026 7.4457,20.2316 6.9137,20.7136 C6.3837,21.1966 5.9247,21.6916 5.5387,22.1986 C5.3697,22.4156 5.2127,22.6446 5.0687,22.8856 C4.9237,23.1276 4.8147,23.3746 4.7427,23.6286 C4.6697,23.8816 4.6587,24.1286 4.7057,24.3706 C4.7547,24.6106 4.8877,24.8406 5.1047,25.0576 C5.3217,25.2746 5.5757,25.3896 5.8647,25.4016 C6.1547,25.4136 6.4497,25.3716 6.7517,25.2746 C7.0527,25.1786 7.3487,25.0516 7.6387,24.8956 C7.9277,24.7376 8.1687,24.5986 8.3627,24.4786 C8.8927,24.1396 9.3997,23.7366 9.8827,23.2666 C10.3657,22.7956 10.7397,22.2706 11.0047,21.6916 C11.1247,21.4246 11.2037,21.1486 11.2407,20.8586 C11.2767,20.5696 11.3247,20.2856 11.3847,20.0076 C11.4457,19.7306 11.5537,19.4836 11.7107,19.2666 C11.8677,19.0486 12.1267,18.8916 12.4897,18.7966 C12.9957,18.6746 13.4487,18.7586 13.8467,19.0486 C14.2447,19.3386 14.4927,19.7236 14.5887,20.2076 C14.7337,20.9076 14.6917,21.5646 14.4617,22.1806 C14.2327,22.7956 13.8887,23.3686 13.4307,23.8996 C12.8027,24.5986 11.9467,25.2206 10.8607,25.7636 C9.7747,26.3066 8.6277,26.6746 7.4207,26.8686 C6.2137,27.0606 5.0497,27.0426 3.9277,26.8136 C2.8057,26.5846 1.8957,26.0596 1.1957,25.2396 C0.7847,24.7556 0.5677,24.2376 0.5427,23.6826 C0.5197,23.1276 0.6107,22.5716 0.8147,22.0166 C1.0207,21.4626 1.3097,20.9426 1.6837,20.4606 C2.0577,19.9776 2.4507,19.5676 2.8607,19.2296 C3.8737,18.4096 5.0447,17.8236 6.3707,17.4736 C7.6987,17.1246 9.0377,16.8776 10.3897,16.7316 C10.3657,16.7316 10.3537,16.7196 10.3537,16.6966 C10.1357,16.4306 10.0517,16.1166 10.0997,15.7546 C9.4957,15.6586 8.9287,15.4286 8.3987,15.0676 C7.8677,14.7046 7.4097,14.2646 7.0237,13.7456 C6.6367,13.2276 6.3347,12.6716 6.1187,12.0806 C5.9007,11.4896 5.7917,10.9036 5.7917,10.3256 C5.7917,9.4076 5.9857,8.5276 6.3707,7.6826 C6.7567,6.8376 7.2637,6.0776 7.8917,5.4016 C8.5197,4.7256 9.2007,4.2376 9.9377,3.9356 C10.6727,3.6336 11.4987,3.4836 12.4167,3.4836 C12.9477,3.4836 13.4847,3.5136 14.0277,3.5736 C14.5707,3.6336 15.0717,3.7856 15.5307,4.0266 C15.6507,3.7606 15.7417,3.4836 15.8017,3.1936 C15.8617,2.9036 15.9277,2.6266 15.9997,2.3606 C16.1207,1.8306 16.3687,1.4076 16.7427,1.0936 C17.1167,0.7806 17.5267,0.5876 17.9737,0.5146 C18.4197,0.4426 18.8547,0.5086 19.2767,0.7136 C19.6987,0.9196 20.0187,1.2876 20.2357,1.8176 C20.4287,2.3006 20.4527,2.7766 20.3087,3.2476 C20.1627,3.7176 19.9337,4.1596 19.6197,4.5696 C19.3067,4.9796 18.9327,5.3466 18.4977,5.6726 C18.0637,5.9996 17.6537,6.2586 17.2677,6.4516 C17.4357,7.0306 17.5207,7.6336 17.5207,8.2606 C17.5207,8.8896 17.4357,9.4676 17.2677,9.9996" id="Fill-17" fill="#E48890" mask="url(#mask-2)"></path>
                </g>
                <path d="M68.2529,33.7174 C68.5429,33.3074 68.8869,32.8304 69.2849,32.2874 C69.6839,31.7444 70.1169,31.2194 70.5879,30.7134 C71.0589,30.2064 71.5529,29.7724 72.0719,29.4104 C72.5909,29.0474 73.1159,28.8554 73.6479,28.8304 C74.1539,28.7824 74.6009,28.8554 74.9859,29.0474 C75.3719,29.2404 75.6979,29.5124 75.9639,29.8624 C76.2299,30.2124 76.4289,30.6174 76.5619,31.0744 C76.6929,31.5334 76.7479,31.9804 76.7239,32.4144 C76.6509,34.1284 76.2469,35.6964 75.5119,37.1204 C74.7749,38.5444 73.8149,39.8354 72.6339,40.9934 C72.3439,41.2834 72.1329,41.5434 71.9999,41.7724 C71.8669,42.0014 71.8189,42.1764 71.8559,42.2974 C71.8919,42.4184 72.0059,42.4594 72.1989,42.4244 C72.3919,42.3874 72.6819,42.2254 73.0679,41.9354 C73.8639,41.3794 74.5759,40.7404 75.2039,40.0164 C75.7829,39.3404 76.3259,38.6474 76.8329,37.9354 C77.3399,37.2234 77.8219,36.4814 78.2799,35.7084 C78.4259,35.4444 78.6429,35.2504 78.9329,35.1294 C79.2219,35.0084 79.4989,35.0934 79.7649,35.3834 C80.0059,35.6494 80.0549,35.9264 79.9089,36.2154 C79.7649,36.5044 79.6199,36.7714 79.4759,37.0124 C78.9919,37.7364 78.4799,38.4364 77.9369,39.1124 C77.3939,39.7874 76.8199,40.4394 76.2169,41.0664 C75.9029,41.3794 75.5709,41.7054 75.2219,42.0434 C74.8719,42.3814 74.5039,42.7014 74.1179,43.0024 C73.7319,43.3054 73.3269,43.5764 72.9049,43.8174 C72.4819,44.0584 72.0549,44.2384 71.6199,44.3604 C71.0409,44.5044 70.5819,44.4694 70.2439,44.2514 C69.9059,44.0344 69.6519,43.7214 69.4839,43.3114 C69.3149,42.9014 69.2249,42.4474 69.2129,41.9534 C69.1999,41.4584 69.2309,41.0064 69.3029,40.5964 C69.4959,39.5104 69.8399,38.5204 70.3349,37.6274 C70.8289,36.7354 71.3659,35.8294 71.9449,34.9124 C72.0419,34.7684 72.2169,34.4904 72.4709,34.0794 C72.7239,33.6694 72.9589,33.2354 73.1769,32.7764 C73.3939,32.3194 73.5379,31.8964 73.6109,31.5094 C73.6839,31.1234 73.5749,30.8824 73.2849,30.7854 C73.1159,30.7374 72.8619,30.8464 72.5249,31.1124 C72.1869,31.3774 71.8429,31.6904 71.4929,32.0524 C71.1439,32.4144 70.8229,32.7644 70.5339,33.1024 C70.2439,33.4404 70.0639,33.6574 69.9909,33.7544 C69.4359,34.4534 68.9049,35.1724 68.3989,35.9074 C67.8919,36.6444 67.3969,37.3864 66.9139,38.1334 C66.6729,38.5204 66.4129,38.9434 66.1359,39.4014 C65.8579,39.8604 65.5929,40.3304 65.3389,40.8134 C65.0859,41.2954 64.8569,41.7784 64.6509,42.2604 C64.4459,42.7434 64.2949,43.1904 64.1989,43.6004 C64.1499,43.7934 64.0599,43.9444 63.9279,44.0534 C63.7949,44.1604 63.6489,44.2334 63.4929,44.2704 C63.3369,44.3064 63.1799,44.2934 63.0229,44.2334 C62.8659,44.1724 62.7389,44.0714 62.6429,43.9264 C62.4979,43.7084 62.4199,43.4374 62.4069,43.1124 C62.3959,42.7854 62.4129,42.4424 62.4619,42.0794 C62.5099,41.7174 62.5699,41.3674 62.6429,41.0294 C62.7149,40.6924 62.7749,40.4144 62.8229,40.1974 C63.1129,38.6044 63.4509,37.0064 63.8369,35.4014 C64.2229,33.7964 64.6209,32.1974 65.0309,30.6044 C65.1279,30.2424 65.2969,29.9354 65.5379,29.6824 C65.7789,29.4284 66.0509,29.2354 66.3529,29.1024 C66.6539,28.9694 66.9809,28.9154 67.3299,28.9404 C67.6799,28.9634 68.0119,29.0844 68.3259,29.3014 C68.8809,29.6624 69.1519,30.1824 69.1409,30.8584 C69.1279,31.5334 68.8329,32.4874 68.2529,33.7174" id="Fill-20" fill="#E48890"></path>
                <path d="M88.416,32.776 C88.416,32.439 88.374,32.107 88.29,31.781 C88.205,31.456 88.042,31.219 87.801,31.075 C87.415,30.81 86.974,30.858 86.479,31.219 C85.984,31.583 85.514,32.052 85.068,32.631 C84.621,33.212 84.223,33.803 83.873,34.405 C83.523,35.008 83.288,35.419 83.167,35.636 C82.806,36.288 82.474,36.958 82.172,37.645 C81.87,38.333 81.635,39.04 81.466,39.763 C81.417,39.957 81.381,40.21 81.357,40.523 C81.333,40.837 81.333,41.151 81.357,41.464 C81.381,41.778 81.453,42.061 81.574,42.315 C81.695,42.569 81.888,42.708 82.154,42.731 C82.563,42.78 82.937,42.653 83.276,42.351 C83.613,42.049 83.892,41.755 84.108,41.464 C84.591,40.837 85.025,40.186 85.412,39.51 C85.798,38.835 86.159,38.147 86.498,37.446 C86.859,36.65 87.216,35.817 87.565,34.948 C87.915,34.08 88.199,33.356 88.416,32.776 M93.412,32.379 C93.001,33.127 92.598,33.869 92.199,34.604 C91.801,35.34 91.433,36.094 91.095,36.868 C90.901,37.326 90.715,37.79 90.534,38.26 C90.353,38.731 90.19,39.208 90.045,39.69 C89.924,40.101 89.779,40.578 89.611,41.121 C89.441,41.664 89.417,42.165 89.538,42.623 C89.9,42.478 90.256,42.243 90.606,41.917 C90.956,41.59 91.282,41.229 91.584,40.831 C91.886,40.432 92.169,40.022 92.435,39.6 C92.7,39.178 92.929,38.822 93.122,38.532 C93.412,38.098 93.695,37.658 93.973,37.212 C94.25,36.764 94.521,36.312 94.787,35.854 C94.884,35.685 95.022,35.528 95.204,35.383 C95.385,35.238 95.565,35.147 95.747,35.112 C95.928,35.075 96.091,35.106 96.235,35.202 C96.38,35.298 96.465,35.491 96.489,35.782 C96.537,36.094 96.446,36.426 96.218,36.776 C95.987,37.127 95.801,37.422 95.656,37.664 C95.343,38.147 94.944,38.768 94.462,39.528 C93.978,40.288 93.448,41.018 92.869,41.717 C92.29,42.419 91.692,43.028 91.077,43.546 C90.462,44.065 89.876,44.337 89.321,44.36 C88.959,44.384 88.621,44.282 88.308,44.053 C87.994,43.823 87.704,43.528 87.438,43.166 C87.173,42.803 86.944,42.412 86.751,41.989 C86.558,41.567 86.413,41.151 86.316,40.741 L85.81,41.537 C85.472,42.044 85.08,42.557 84.634,43.075 C84.187,43.594 83.662,43.974 83.059,44.215 C82.527,44.432 82.02,44.481 81.538,44.36 C81.056,44.239 80.609,44.016 80.199,43.69 C79.788,43.365 79.427,42.973 79.113,42.514 C78.799,42.056 78.546,41.609 78.353,41.174 C77.919,40.161 77.72,39.166 77.756,38.188 C77.792,37.212 77.979,36.215 78.316,35.202 C78.582,34.381 78.926,33.604 79.349,32.868 C79.77,32.131 80.283,31.45 80.887,30.822 C81.345,30.339 81.876,29.922 82.479,29.573 C83.083,29.223 83.71,28.975 84.362,28.831 C85.014,28.686 85.684,28.65 86.371,28.722 C87.059,28.795 87.716,29.012 88.344,29.374 C88.585,29.518 88.797,29.712 88.978,29.954 C89.158,30.194 89.309,30.46 89.43,30.75 C89.551,30.557 89.684,30.364 89.828,30.171 C89.973,29.977 90.142,29.808 90.335,29.663 C90.77,29.326 91.228,29.187 91.711,29.247 C92.193,29.307 92.609,29.489 92.959,29.79 C93.309,30.092 93.544,30.478 93.665,30.948 C93.786,31.419 93.701,31.896 93.412,32.379" id="Fill-22" fill="#E48890"></path>
                <path d="M102.6787,34.0074 C102.9687,33.8384 103.2337,33.6454 103.4747,33.4284 C103.7157,33.2114 103.9207,32.9454 104.0907,32.6314 C104.1627,32.5354 104.2357,32.3974 104.3077,32.2154 C104.3797,32.0334 104.4277,31.8544 104.4517,31.6724 C104.4767,31.4904 104.4637,31.3344 104.4157,31.2014 C104.3667,31.0694 104.2357,30.9904 104.0177,30.9664 C103.6317,30.9434 103.2517,31.0514 102.8777,31.2924 C102.5027,31.5334 102.1537,31.8354 101.8277,32.1974 C101.5017,32.5594 101.2127,32.9404 100.9587,33.3374 C100.7057,33.7364 100.4937,34.0684 100.3257,34.3324 C99.8197,35.1534 99.3717,36.0104 98.9867,36.9034 C98.5997,37.7964 98.3707,38.7254 98.2987,39.6904 C98.2747,40.0044 98.2857,40.3424 98.3347,40.7034 C98.3827,41.0664 98.4797,41.3984 98.6237,41.6994 C98.7697,42.0014 98.9617,42.2484 99.2027,42.4424 C99.4447,42.6354 99.7457,42.7314 100.1087,42.7314 C100.5427,42.7314 100.9647,42.6474 101.3757,42.4784 C101.7847,42.3094 102.1717,42.0864 102.5337,41.8084 C102.8957,41.5314 103.2337,41.2294 103.5477,40.9034 C103.8607,40.5774 104.1507,40.2584 104.4157,39.9444 C104.8257,39.4614 105.2247,38.9544 105.6107,38.4234 C105.9957,37.8934 106.3587,37.3504 106.6977,36.7944 C106.7927,36.6504 106.9137,36.4454 107.0587,36.1794 C107.2027,35.9144 107.3657,35.6784 107.5477,35.4734 C107.7287,35.2684 107.9277,35.1354 108.1447,35.0744 C108.3627,35.0154 108.5907,35.1174 108.8327,35.3834 C109.0007,35.5764 109.0617,35.7994 109.0137,36.0534 C108.9647,36.3064 108.8687,36.5594 108.7237,36.8134 C108.5787,37.0664 108.4157,37.3144 108.2357,37.5554 C108.0547,37.7964 107.9147,37.9884 107.8197,38.1334 C107.4077,38.7134 106.9737,39.2744 106.5157,39.8174 C106.0567,40.3604 105.5747,40.8734 105.0677,41.3564 C104.7297,41.6944 104.3797,42.0264 104.0177,42.3514 C103.6567,42.6774 103.2697,42.9854 102.8597,43.2744 C102.4497,43.5644 102.0207,43.8114 101.5747,44.0164 C101.1277,44.2214 100.6627,44.3604 100.1807,44.4324 C99.5527,44.5044 98.9497,44.4444 98.3707,44.2514 C97.7917,44.0584 97.2667,43.7684 96.7957,43.3834 C96.3247,42.9964 95.9087,42.5444 95.5477,42.0264 C95.1857,41.5064 94.9077,40.9704 94.7147,40.4144 C94.3287,39.3284 94.2207,38.2484 94.3887,37.1744 C94.5587,36.1014 94.8467,35.0454 95.2577,34.0074 C95.5957,33.0904 96.0477,32.2704 96.6157,31.5454 C97.1817,30.8214 97.8517,30.1584 98.6237,29.5554 C99.0817,29.2174 99.6377,28.9574 100.2887,28.7764 C100.9417,28.5954 101.5987,28.5184 102.2627,28.5414 C102.9257,28.5654 103.5527,28.7034 104.1447,28.9574 C104.7357,29.2114 105.1997,29.6044 105.5377,30.1334 C105.9487,30.7854 106.1777,31.4864 106.2267,32.2334 C106.2747,32.9824 106.1907,33.7174 105.9727,34.4424 C105.9007,34.7074 105.7977,35.0154 105.6647,35.3644 C105.5327,35.7154 105.3807,36.0594 105.2127,36.3974 C105.0437,36.7354 104.8507,37.0424 104.6337,37.3194 C104.4157,37.5974 104.1747,37.8084 103.9087,37.9534 C103.5957,38.1214 103.2767,38.2064 102.9497,38.2064 C102.6237,38.2064 102.3167,38.1334 102.0277,37.9884 C101.7377,37.8444 101.4957,37.6394 101.3027,37.3734 C101.1097,37.1084 100.9897,36.7944 100.9417,36.4324 C100.8447,35.8054 100.9897,35.3114 101.3757,34.9474 C101.7617,34.5864 102.1957,34.2734 102.6787,34.0074" id="Fill-24" fill="#E48890"></path>
                <path d="M111.8369,24.9576 C111.8369,24.3056 112.0719,23.7446 112.5429,23.2736 C113.0129,22.8036 113.5619,22.5686 114.1899,22.5686 C114.8409,22.5686 115.4019,22.8036 115.8729,23.2736 C116.3439,23.7446 116.5789,24.3056 116.5789,24.9576 C116.5789,25.5856 116.3439,26.1336 115.8729,26.6036 C115.4019,27.0746 114.8409,27.3116 114.1899,27.3116 C113.5619,27.3116 113.0129,27.0746 112.5429,26.6036 C112.0719,26.1336 111.8369,25.5856 111.8369,24.9576 L111.8369,24.9576 Z M111.2579,36.5776 C110.9909,37.1076 110.7439,37.6336 110.5159,38.1516 C110.2859,38.6716 110.0629,39.2076 109.8459,39.7636 C109.7739,39.9566 109.6699,40.1916 109.5379,40.4696 C109.4049,40.7466 109.2839,41.0296 109.1759,41.3186 C109.0669,41.6086 108.9879,41.8816 108.9409,42.1336 C108.8919,42.3876 108.9279,42.5626 109.0489,42.6586 C109.2419,42.8286 109.5559,42.7566 109.9899,42.4416 C110.4249,42.1286 110.8709,41.7356 111.3299,41.2656 C111.7879,40.7946 112.2109,40.3306 112.5969,39.8716 C112.9829,39.4136 113.2239,39.1236 113.3199,39.0026 C113.6579,38.5686 113.9789,38.1336 114.2799,37.6996 C114.5809,37.2656 114.8769,36.8186 115.1669,36.3596 C115.2629,36.2156 115.3719,36.0406 115.4929,35.8356 C115.6129,35.6306 115.7579,35.4556 115.9269,35.3116 C116.0959,35.1656 116.2719,35.0816 116.4519,35.0576 C116.6329,35.0336 116.8319,35.1426 117.0499,35.3836 C117.3149,35.6966 117.3509,36.0216 117.1579,36.3596 C116.9649,36.6976 116.7829,37.0006 116.6149,37.2656 C115.8659,38.3756 115.0949,39.3776 114.2979,40.2706 C113.5019,41.1626 112.6809,41.9956 111.8369,42.7686 C111.4749,43.1056 111.0699,43.4436 110.6239,43.7816 C110.1769,44.1186 109.6889,44.3116 109.1579,44.3596 C108.7469,44.4086 108.3849,44.3596 108.0719,44.2156 C107.7579,44.0706 107.4809,43.8716 107.2389,43.6176 C106.9979,43.3646 106.7929,43.0746 106.6239,42.7496 C106.4549,42.4246 106.3219,42.0926 106.2259,41.7546 C106.0579,41.2466 105.9969,40.6916 106.0449,40.0886 C106.0939,39.4856 106.1949,38.8896 106.3529,38.2976 C106.5099,37.7056 106.7019,37.1266 106.9319,36.5596 C107.1609,35.9926 107.3719,35.4676 107.5659,34.9846 C107.9509,34.0206 108.2709,33.2286 108.5239,32.6136 C108.7769,31.9986 108.9879,31.5096 109.1579,31.1466 C109.3259,30.7856 109.4659,30.5146 109.5739,30.3326 C109.6829,30.1516 109.8099,30.0016 109.9539,29.8806 C110.3639,29.5186 110.8109,29.3506 111.2939,29.3736 C111.7759,29.3976 112.2039,29.5496 112.5789,29.8266 C112.9519,30.1036 113.2179,30.4726 113.3749,30.9306 C113.5319,31.3896 113.4889,31.8716 113.2479,32.3786 L111.2579,36.5776 Z" id="Fill-26" fill="#E48890"></path>
                <g id="Group-30" transform="translate(115.000000, 28.071700)">
                    <mask id="mask-4" fill="white">
                        <use xlink:href="#path-3"></use>
                    </mask>
                    <g id="Clip-29"></g>
                    <path d="M9.5781,9.9543 C9.9161,9.2543 10.2241,8.5543 10.5011,7.8543 C10.7781,7.1543 11.0141,6.4313 11.2071,5.6833 C11.4001,4.8623 11.4611,4.2333 11.3891,3.8003 C11.3151,3.3653 11.1581,3.0823 10.9181,2.9493 C10.6761,2.8173 10.3681,2.8043 9.9941,2.9133 C9.6201,3.0213 9.2401,3.2023 8.8541,3.4563 C8.4681,3.7093 8.0881,4.0173 7.7141,4.3793 C7.3401,4.7413 7.0201,5.1023 6.7551,5.4653 C6.0551,6.3823 5.4331,7.3903 4.8911,8.4873 C4.3481,9.5863 3.9791,10.7143 3.7861,11.8723 C3.7621,12.0423 3.7321,12.2653 3.6961,12.5423 C3.6601,12.8193 3.6531,13.0913 3.6781,13.3563 C3.7011,13.6223 3.7621,13.8693 3.8581,14.0993 C3.9551,14.3283 4.1121,14.4783 4.3291,14.5513 C4.5951,14.6723 4.8721,14.6963 5.1621,14.6243 C5.4511,14.5513 5.7051,14.4673 5.9221,14.3703 C6.3561,14.1533 6.7551,13.8823 7.1171,13.5563 C7.4781,13.2293 7.8051,12.8683 8.0941,12.4703 C8.3841,12.0713 8.6491,11.6553 8.8911,11.2213 C9.1321,10.7863 9.3611,10.3643 9.5781,9.9543 M12.6191,11.4383 C12.1841,12.0893 11.6601,12.7473 11.0441,13.4113 C10.4291,14.0753 9.7531,14.6413 9.0171,15.1123 C8.2811,15.5833 7.4971,15.9213 6.6641,16.1263 C5.8321,16.3313 4.9811,16.3123 4.1121,16.0713 C3.0741,15.7823 2.2481,15.2093 1.6331,14.3523 C1.0171,13.4953 0.5641,12.5723 0.2751,11.5833 C0.0341,10.6903 -0.0149,9.7903 0.1301,8.8863 C0.2751,7.9813 0.5151,7.1183 0.8541,6.2983 C1.2161,5.4053 1.7411,4.5363 2.4291,3.6903 C3.1171,2.8473 3.8831,2.1943 4.7271,1.7363 C5.6691,1.2293 6.7241,0.9463 7.8951,0.8863 C9.0651,0.8253 10.1511,0.9893 11.1531,1.3743 C12.1541,1.7613 12.9741,2.3763 13.6141,3.2213 C14.2541,4.0653 14.5141,5.1513 14.3921,6.4783 C14.3681,7.3953 14.1871,8.2653 13.8491,9.0853 C13.5121,9.9053 13.1011,10.6903 12.6191,11.4383" id="Fill-28" fill="#E48890" mask="url(#mask-4)"></path>
                </g>
                <path d="M128.2316,50.903 C128.3876,50.934 128.5206,50.996 128.6246,51.093 C128.7296,51.191 128.7726,51.314 128.7556,51.463 C128.7196,51.598 128.6406,51.71 128.5206,51.8 C128.3976,51.888 128.2576,51.919 128.1016,51.888 C127.9606,51.888 127.8226,51.885 127.6826,51.878 C127.5416,51.87 127.4046,51.859 127.2636,51.845 L122.4006,51.396 C120.5696,51.246 118.7566,51.101 116.9616,50.96 C115.1656,50.818 113.3496,50.686 111.5216,50.567 C109.6546,50.433 107.7976,50.306 105.9516,50.187 C104.1026,50.067 102.2536,49.955 100.4066,49.851 C98.5576,49.775 96.7136,49.698 94.8756,49.616 C93.0366,49.534 91.1926,49.463 89.3436,49.402 C87.4966,49.358 85.6606,49.325 83.8396,49.302 C82.0166,49.28 80.1826,49.291 78.3336,49.336 C76.5556,49.35 74.7606,49.418 72.9476,49.537 C72.0916,49.596 71.2466,49.661 70.4086,49.727 C69.5736,49.795 68.7356,49.902 67.8986,50.052 C67.4646,50.126 67.0356,50.201 66.6186,50.276 C66.1996,50.351 65.7886,50.448 65.3876,50.567 C65.1966,50.597 65.0096,50.642 64.8256,50.702 C64.6426,50.761 64.4656,50.821 64.2896,50.881 C64.2206,50.911 64.1546,50.937 64.0926,50.96 C64.0346,50.982 63.9606,50.993 63.8706,50.993 C63.6976,50.963 63.5846,50.889 63.5316,50.768 C63.4976,50.694 63.4876,50.615 63.5056,50.533 C63.5236,50.451 63.5316,50.374 63.5316,50.298 C63.5316,50.208 63.5416,50.126 63.5596,50.052 C63.5746,49.978 63.5926,49.896 63.6106,49.806 C63.7146,49.164 64.0296,48.596 64.5526,48.103 C64.8826,47.849 65.2246,47.656 65.5716,47.521 C65.7636,47.446 65.9726,47.394 66.1996,47.365 C66.4276,47.334 66.6346,47.305 66.8286,47.275 C67.2446,47.2 67.6636,47.133 68.0826,47.073 C68.5006,47.014 68.9276,46.961 69.3646,46.916 C70.2526,46.811 71.1346,46.734 72.0046,46.681 C72.8756,46.629 73.7566,46.581 74.6456,46.536 C76.4946,46.46 78.3306,46.431 80.1516,46.446 C81.9726,46.46 83.7986,46.499 85.6296,46.558 C87.5126,46.602 89.3796,46.681 91.2256,46.793 C93.0746,46.905 94.9316,47.02 96.7986,47.141 C98.6446,47.289 100.4806,47.446 102.3016,47.611 C104.1256,47.775 105.9586,47.954 107.8076,48.148 C109.6546,48.343 111.4776,48.547 113.2736,48.765 C115.0686,48.98 116.8816,49.209 118.7136,49.447 C120.3166,49.671 121.9026,49.899 123.4716,50.131 C125.0416,50.362 126.6196,50.62 128.2056,50.903 L128.2316,50.903 Z" id="Fill-31" fill="#E48890"></path>
                <path d="M22.7559,36.565 C23.1769,36.68 23.6179,36.714 24.0789,36.667 C24.5399,36.619 24.9949,36.527 25.4459,36.393 C25.8959,36.259 26.3329,36.086 26.7549,35.875 C27.1769,35.665 27.5599,35.444 27.9049,35.213 C28.2119,35.003 28.5249,34.825 28.8409,34.681 C29.1569,34.538 29.5069,34.543 29.8899,34.696 C30.3689,34.868 30.7049,35.189 30.8979,35.659 C31.0889,36.129 31.0689,36.585 30.8389,37.026 C30.6279,37.428 30.3079,37.73 29.8759,37.932 C29.4439,38.133 28.9599,38.273 28.4229,38.349 C27.8859,38.426 27.3299,38.464 26.7549,38.464 C26.1789,38.464 25.6609,38.455 25.2009,38.435 C25.2589,38.57 25.3019,38.704 25.3309,38.838 C25.3599,38.972 25.3929,39.117 25.4309,39.269 C25.5079,39.826 25.4739,40.363 25.3309,40.88 C25.1869,41.398 24.9659,41.873 24.6689,42.304 C24.3709,42.736 24.0029,43.105 23.5619,43.412 C23.1199,43.718 22.6409,43.939 22.1229,44.074 C21.5669,44.208 21.0299,44.222 20.5119,44.117 C19.9939,44.011 19.5149,43.815 19.0729,43.527 C18.6319,43.24 18.2349,42.889 17.8799,42.477 C17.5249,42.065 17.2229,41.628 16.9739,41.169 C16.7429,40.747 16.5799,40.295 16.4849,39.816 C16.3889,39.337 16.3599,38.867 16.3979,38.407 C16.4369,37.946 16.5519,37.505 16.7429,37.084 C16.9349,36.662 17.2229,36.278 17.6069,35.932 C17.9519,35.607 18.3679,35.353 18.8589,35.17 C19.3469,34.988 19.9939,34.83 20.7999,34.696 C20.5299,34.427 20.3159,34.116 20.1519,33.76 C19.9889,33.406 19.8689,33.037 19.7919,32.653 C19.6199,31.886 19.6339,31.119 19.8359,30.351 C20.0369,29.585 20.4259,28.923 21.0009,28.367 C21.3839,28.002 21.8829,27.701 22.4969,27.461 C23.1099,27.221 23.7339,27.091 24.3659,27.072 C24.9989,27.053 25.6049,27.154 26.1789,27.375 C26.7549,27.595 27.2049,27.963 27.5309,28.482 C27.9149,29.095 28.1639,29.776 28.2789,30.524 C28.3939,31.272 28.3839,31.992 28.2509,32.682 C28.1159,33.391 27.8429,33.958 27.4309,34.379 C27.0189,34.801 26.4949,35.137 25.8619,35.386 C25.3639,35.54 24.8799,35.54 24.4099,35.386 C23.9409,35.233 23.6279,34.878 23.4759,34.322 C23.3789,34.015 23.3639,33.732 23.4319,33.473 C23.4989,33.214 23.6179,32.994 23.7919,32.811 C23.9639,32.629 24.1799,32.48 24.4389,32.366 C24.6979,32.251 24.9609,32.164 25.2299,32.106 C25.4599,32.068 25.6999,31.944 25.9489,31.732 C26.1979,31.522 26.4089,31.277 26.5819,30.999 C26.7549,30.721 26.8549,30.438 26.8839,30.15 C26.9129,29.863 26.8119,29.614 26.5819,29.402 C26.2749,29.153 25.9349,29.077 25.5609,29.172 C25.1869,29.268 24.8179,29.451 24.4529,29.718 C24.0889,29.988 23.7579,30.294 23.4599,30.639 C23.1629,30.985 22.9389,31.282 22.7839,31.531 C22.6689,31.723 22.5639,31.939 22.4679,32.178 C22.3719,32.419 22.2999,32.663 22.2529,32.912 C22.2039,33.162 22.2039,33.406 22.2529,33.645 C22.2999,33.885 22.4109,34.101 22.5829,34.293 C22.7179,34.447 22.8859,34.566 23.0869,34.652 C23.2879,34.739 23.4269,34.887 23.5039,35.098 C23.5999,35.329 23.5799,35.515 23.4459,35.659 C23.3119,35.803 23.1399,35.914 22.9289,35.99 C22.4479,36.144 22.0269,36.297 21.6629,36.451 C21.2979,36.604 20.9439,36.881 20.5989,37.285 C19.8889,38.09 19.4569,39.03 19.3039,40.104 C19.2269,40.622 19.2649,41.144 19.4189,41.671 C19.5709,42.2 19.9269,42.569 20.4839,42.779 C21.0009,42.99 21.5379,43.028 22.0949,42.894 C22.6509,42.76 23.1199,42.492 23.5039,42.088 C23.8289,41.744 24.0549,41.332 24.1799,40.852 C24.3039,40.373 24.3189,39.903 24.2239,39.442 C24.1649,39.193 24.0499,38.944 23.8779,38.694 C23.7049,38.445 23.3409,38.215 22.7839,38.003 C22.6309,37.946 22.4829,37.894 22.3389,37.845 C22.1939,37.798 22.0849,37.697 22.0079,37.544 C21.9109,37.41 21.8739,37.275 21.8929,37.141 C21.9109,37.006 21.9599,36.892 22.0359,36.795 C22.1119,36.7 22.2189,36.627 22.3529,36.58 C22.4869,36.532 22.6219,36.527 22.7559,36.565" id="Fill-33" fill="#E48890"></path>
            </g>
        </g>
    </g>
</svg>