<?xml version="1.0" encoding="UTF-8"?>
<svg width="20px" height="20px" viewBox="0 0 20 20" version="1.1" xmlns="http://www.w3.org/2000/svg" xmlns:xlink="http://www.w3.org/1999/xlink">
    <!-- Generator: Sketch 42 (36781) - http://www.bohemiancoding.com/sketch -->
    <title>Group 4</title>
    <desc>Created with Sketch.</desc>
    <defs></defs>
    <g id="Page-1" stroke="none" stroke-width="1" fill="none" fill-rule="evenodd">
        <g id="Artboard" transform="translate(-301.000000, -426.000000)">
            <g id="Group-4" transform="translate(301.000000, 426.000000)">
                <path d="M6.0025,18.5323 L5.7265,18.0421 C5.6391,17.889 5.6692,17.6965 5.7988,17.5763 L6.5068,16.919 L5.425,16.919 C5.2964,16.919 5.1762,16.8542 5.1057,16.7462 C5.0353,16.6382 5.025,16.502 5.0766,16.3846 L6.2899,13.6463 C5.5274,13.9713 4.3705,14.4605 3.2013,14.9423 C1.7871,15.5245 1.5486,16.1959 1.5486,17.4796 L1.5486,18.5323 L4.0887,18.5323 L4.0887,17.8364 C4.0887,17.6261 4.2596,17.4561 4.4691,17.4561 C4.6794,17.4561 4.8503,17.6261 4.8503,17.8364 L4.8503,18.5323 L6.0025,18.5323 Z" id="Fill-4081" fill="#F7B8CF"></path>
                <path d="M17.0166,14.9421 C15.8475,14.4603 14.6905,13.9711 13.9271,13.6471 L15.1413,16.3845 C15.1929,16.5018 15.1826,16.638 15.1122,16.746 C15.0417,16.854 14.9215,16.9188 14.7929,16.9188 L13.7111,16.9188 L14.4191,17.5761 C14.5487,17.6963 14.5788,17.8888 14.4915,18.0428 L14.2154,18.5321 L15.3676,18.5321 L15.3676,17.8362 C15.3676,17.6259 15.5385,17.4559 15.7489,17.4559 C15.9583,17.4559 16.1292,17.6259 16.1292,17.8362 L16.1292,18.5321 L18.6693,18.5321 L18.6693,17.4794 C18.6693,16.1957 18.4308,15.5243 17.0166,14.9421" id="Fill-4082" fill="#F7B8CF"></path>
                <polygon id="Fill-4083" fill="#F7B8CF" points="7.6634 12.1811 7.6634 13.7184 9.24 12.8723"></polygon>
                <polygon id="Fill-4084" fill="#F7B8CF" points="12.5546 12.1811 10.978 12.8723 12.5546 13.7184"></polygon>
                <path d="M18.6696,18.5323 L16.1285,18.5323 L16.1285,17.8364 C16.1285,17.6261 15.9585,17.4561 15.7482,17.4561 C15.5378,17.4561 15.3679,17.6261 15.3679,17.8364 L15.3679,18.5323 L14.2157,18.5323 L14.4917,18.0421 C14.5781,17.889 14.5481,17.6965 14.4194,17.5763 L13.7114,16.919 L14.7932,16.919 C14.9218,16.919 15.042,16.8542 15.1125,16.7462 C15.1819,16.6382 15.1932,16.502 15.1406,16.3846 L13.9274,13.6463 C14.6899,13.9713 15.8477,14.4605 17.0169,14.9423 C18.4311,15.5245 18.6696,16.1959 18.6696,17.4796 L18.6696,18.5323 Z M13.3414,18.5323 L10.7317,18.5323 L12.716,14.669 L12.7554,14.6896 C12.8118,14.7197 12.8737,14.7347 12.9348,14.7347 C13.0033,14.7347 13.0709,14.7169 13.1301,14.6812 C13.2456,14.6126 13.316,14.4877 13.316,14.3544 L13.316,14.145 L14.2081,16.1583 L12.7423,16.1583 C12.5864,16.1583 12.4455,16.2541 12.3882,16.3997 C12.331,16.5452 12.3685,16.7105 12.4831,16.8176 L13.6813,17.9303 L13.3414,18.5323 Z M8.1728,14.3084 L10.1091,13.2698 L12.0455,14.3084 L10.1091,18.0797 L8.1728,14.3084 Z M6.8769,18.5323 L6.536,17.9303 L7.7343,16.8176 C7.8488,16.7105 7.8864,16.5452 7.83,16.3997 C7.7728,16.2541 7.6319,16.1583 7.4751,16.1583 L6.0092,16.1583 L6.9023,14.145 L6.9023,14.3544 C6.9023,14.4877 6.9727,14.6126 7.0872,14.6812 C7.1473,14.7169 7.215,14.7347 7.2826,14.7347 C7.3445,14.7347 7.4065,14.7197 7.4629,14.6896 L7.5023,14.669 L9.4856,18.5323 L6.8769,18.5323 Z M5.7265,18.0421 L6.0026,18.5323 L4.8504,18.5323 L4.8504,17.8364 C4.8504,17.6261 4.6795,17.4561 4.4691,17.4561 C4.2588,17.4561 4.0888,17.6261 4.0888,17.8364 L4.0888,18.5323 L1.5487,18.5323 L1.5487,17.4796 C1.5487,16.1959 1.7872,15.5245 3.2014,14.9423 C4.3705,14.4605 5.5275,13.9713 6.29,13.6463 L5.0767,16.3846 C5.0251,16.502 5.0354,16.6382 5.1058,16.7462 C5.1763,16.8542 5.2955,16.919 5.4251,16.919 L6.5069,16.919 L5.7989,17.5763 C5.6693,17.6965 5.6392,17.889 5.7265,18.0421 L5.7265,18.0421 Z M7.6629,12.1814 L9.2396,12.8726 L7.6629,13.7187 L7.6629,12.1814 Z M6.3783,5.7676 C6.351,5.4023 6.3435,5.0577 6.3548,4.7347 C6.7999,4.7037 7.9925,4.4802 8.8283,3.0068 C8.9316,3.0763 9.0405,3.1458 9.1551,3.2153 C10.0894,3.7806 11.5919,4.4276 13.5724,4.4276 C13.6625,4.4276 13.7546,4.4257 13.8466,4.4229 C13.8776,4.8342 13.8757,5.2831 13.84,5.7676 C13.6334,8.5604 12.0652,10.5878 10.1091,10.5878 C8.1531,10.5878 6.5839,8.5604 6.3783,5.7676 L6.3783,5.7676 Z M7.2675,1.9907 C7.3258,1.9288 7.3868,1.8705 7.4507,1.8142 C7.4544,1.8198 7.4582,1.8255 7.4629,1.8302 C7.4788,1.8499 7.7296,2.1541 8.2113,2.5485 C7.6122,3.6632 6.7961,3.9092 6.4215,3.9628 C6.5454,3.1242 6.8281,2.464 7.2675,1.9907 L7.2675,1.9907 Z M10.1091,1.0028 C11.4032,1.0028 12.3328,1.3268 12.9507,1.9907 C13.3367,2.4067 13.6015,2.9664 13.7433,3.6641 C12.2333,3.6961 10.8313,3.3327 9.5767,2.5805 C8.7297,2.0734 8.2235,1.5409 8.0883,1.3907 C8.6264,1.1306 9.2959,1.0028 10.1091,1.0028 L10.1091,1.0028 Z M8.8161,11.1043 C9.2245,11.263 9.6575,11.3485 10.1091,11.3485 C10.5599,11.3485 10.9937,11.263 11.4013,11.1043 L11.4013,11.8556 L10.1091,12.4228 L8.8161,11.8556 L8.8161,11.1043 Z M12.5545,12.1814 L12.5545,13.7187 L10.9778,12.8726 L12.5545,12.1814 Z M5.55,7.0016 C5.4627,6.6804 5.5322,6.3977 5.6618,6.2597 C5.7172,6.7076 5.8054,7.1349 5.9238,7.5396 C5.7716,7.4514 5.6223,7.2645 5.55,7.0016 L5.55,7.0016 Z M14.5556,6.2597 C14.6861,6.3977 14.7556,6.6795 14.6673,7.0006 C14.596,7.2645 14.4467,7.4514 14.2945,7.5396 C14.4119,7.1349 14.5002,6.7076 14.5556,6.2597 L14.5556,6.2597 Z M17.3061,14.238 C15.3162,13.4182 13.317,12.5589 13.316,12.5589 L13.316,11.5983 C13.316,11.4705 13.2512,11.3503 13.1432,11.2799 C13.0362,11.2095 12.9,11.1982 12.7826,11.2499 L12.1629,11.5222 L12.1629,10.7033 C12.9338,10.1822 13.5715,9.3689 14.0053,8.3519 C14.041,8.3557 14.0776,8.3585 14.1142,8.3585 C14.6767,8.3585 15.212,7.8965 15.4017,7.2016 C15.6224,6.3949 15.2824,5.623 14.6288,5.4446 C14.626,5.4437 14.6232,5.4427 14.6204,5.4427 C14.6918,3.6792 14.318,2.3457 13.5076,1.4733 C12.7488,0.6563 11.6051,0.2422 10.1091,0.2422 C8.6123,0.2422 7.4685,0.6563 6.7097,1.4733 C5.8993,2.3457 5.5256,3.6792 5.597,5.4427 C5.5941,5.4427 5.5923,5.4437 5.5894,5.4446 C4.9349,5.623 4.5959,6.3949 4.8157,7.2016 C5.0063,7.8974 5.5416,8.3585 6.1041,8.3585 C6.1397,8.3585 6.1764,8.3557 6.213,8.3519 C6.6459,9.3689 7.2844,10.1822 8.0554,10.7033 L8.0554,11.5222 L7.4356,11.2499 C7.3183,11.1982 7.1821,11.2095 7.0741,11.2799 C6.967,11.3503 6.9023,11.4705 6.9023,11.5983 L6.9023,12.5589 C6.8947,12.5617 4.9021,13.4182 2.9112,14.238 C1.1345,14.9704 0.7871,15.9809 0.7871,17.4796 L0.7871,18.9126 C0.7871,19.1229 0.958,19.2939 1.1674,19.2939 L19.0499,19.2939 C19.2603,19.2939 19.4303,19.1229 19.4303,18.9126 L19.4303,17.4796 C19.4303,15.9809 19.0828,14.9704 17.3061,14.238 L17.3061,14.238 Z" id="Fill-4085" fill="#3FBBC4"></path>
                <path d="M9.0497,6.7366 L7.8289,6.7366 C7.6186,6.7366 7.4486,6.5666 7.4486,6.3562 C7.4486,6.1459 7.6186,5.975 7.8289,5.975 L9.0497,5.975 C9.26,5.975 9.43,6.1459 9.43,6.3562 C9.43,6.5666 9.26,6.7366 9.0497,6.7366" id="Fill-4086" fill="#3FBBC4"></path>
                <path d="M12.389,6.7366 L11.1682,6.7366 C10.9579,6.7366 10.7879,6.5666 10.7879,6.3562 C10.7879,6.1459 10.9579,5.975 11.1682,5.975 L12.389,5.975 C12.5993,5.975 12.7693,6.1459 12.7693,6.3562 C12.7693,6.5666 12.5993,6.7366 12.389,6.7366" id="Fill-4087" fill="#3FBBC4"></path>
                <path d="M10.109,9.1952 C9.5004,9.1952 9.0056,8.7745 9.0056,8.2571 C9.0056,8.0467 9.1755,7.8768 9.3859,7.8768 C9.5962,7.8768 9.7662,8.0467 9.7662,8.2571 C9.7662,8.3191 9.8967,8.4336 10.109,8.4336 C10.3212,8.4336 10.4517,8.3191 10.4517,8.2571 C10.4517,8.0467 10.6217,7.8768 10.832,7.8768 C11.0424,7.8768 11.2123,8.0467 11.2123,8.2571 C11.2123,8.7745 10.7175,9.1952 10.109,9.1952" id="Fill-4088" fill="#3FBBC4"></path>
            </g>
        </g>
    </g>
</svg>