<?xml version="1.0" encoding="UTF-8"?>
<svg width="16px" height="20px" viewBox="0 0 16 20" version="1.1" xmlns="http://www.w3.org/2000/svg" xmlns:xlink="http://www.w3.org/1999/xlink">
    <!-- Generator: Sketch 42 (36781) - http://www.bohemiancoding.com/sketch -->
    <title>Group 3</title>
    <desc>Created with Sketch.</desc>
    <defs></defs>
    <g id="Page-1" stroke="none" stroke-width="1" fill="none" fill-rule="evenodd">
        <g id="Artboard" transform="translate(-197.000000, -426.000000)">
            <g id="Group-3" transform="translate(197.000000, 426.000000)">
                <path d="M8.1209,2.423 C7.5387,2.423 7.0475,2.808 6.9123,3.3254 C7.2814,3.2343 7.6833,3.1883 8.1209,3.1883 C8.5576,3.1883 8.9604,3.2343 9.3295,3.3254 C9.1942,2.808 8.7031,2.423 8.1209,2.423" id="Fill-4074" fill="#F7B8CF"></path>
                <path d="M11.3081,6.4884 C10.9202,4.9032 10.0169,4.0872 8.5275,3.966 C8.6637,4.8234 9.1764,5.5061 10.0582,5.9991 C10.5239,6.2602 10.9954,6.4095 11.3081,6.4884" id="Fill-4075" fill="#F7B8CF"></path>
                <path d="M4.9335,6.4884 C5.2462,6.4095 5.7176,6.2602 6.1834,5.9991 C7.0652,5.5061 7.5779,4.8234 7.7141,3.966 C6.2247,4.0872 5.3214,4.9032 4.9335,6.4884" id="Fill-4076" fill="#F7B8CF"></path>
                <path d="M7.3757,8.2698 C7.3757,8.0594 7.2058,7.8894 6.9954,7.8894 L6.2066,7.8894 C5.9963,7.8894 5.8263,8.0594 5.8263,8.2698 C5.8263,8.4801 5.9963,8.6501 6.2066,8.6501 L6.9954,8.6501 C7.2058,8.6501 7.3757,8.4801 7.3757,8.2698" id="Fill-4077" fill="#3FBBC4"></path>
                <path d="M10.0347,7.8892 L9.2468,7.8892 C9.0365,7.8892 8.8656,8.0591 8.8656,8.2695 C8.8656,8.4798 9.0365,8.6507 9.2468,8.6507 L10.0347,8.6507 C10.245,8.6507 10.415,8.4798 10.415,8.2695 C10.415,8.0591 10.245,7.8892 10.0347,7.8892" id="Fill-4078" fill="#3FBBC4"></path>
                <path d="M14.784,17.7712 L14.784,18.698 L12.6439,18.698 L12.6439,18.2848 C12.6439,17.2923 11.1085,16.6753 8.6369,16.6753 C8.404,16.6753 8.3186,16.834 8.2096,17.034 C8.173,17.1026 8.1279,17.1861 8.081,17.2744 C8.034,17.1861 7.9899,17.1016 7.9533,17.034 C7.8443,16.833 7.7589,16.6753 7.526,16.6753 C5.0544,16.6753 3.519,17.2923 3.519,18.2848 L3.519,18.698 L1.4578,18.698 L1.4578,17.7712 C1.4578,17.7496 1.3705,16.4762 3.4298,15.7513 C4.4618,15.3878 5.2629,15.0686 5.8423,14.6817 C6.1672,15.4611 7.0649,16.0226 8.1204,16.0226 C9.1769,16.0226 10.0746,15.4611 10.3995,14.6817 C10.9789,15.0686 11.779,15.3878 12.812,15.7513 C14.8713,16.4762 14.784,17.7496 14.784,17.7712 L14.784,17.7712 Z M11.8823,18.698 L4.2797,18.698 L4.2797,18.2848 C4.2797,17.9984 5.1708,17.4716 7.3063,17.4378 C7.356,17.5317 7.7166,18.2078 7.7486,18.2557 C7.772,18.2989 7.804,18.3365 7.8425,18.3675 C7.9026,18.4201 7.9758,18.452 8.0791,18.452 L8.081,18.452 L8.081,18.452 L8.0838,18.452 C8.1862,18.452 8.2603,18.4201 8.3204,18.3675 C8.358,18.3365 8.3899,18.2989 8.4143,18.2557 C8.4463,18.2078 8.8069,17.5317 8.8566,17.4378 C10.9911,17.4716 11.8823,17.9984 11.8823,18.2848 L11.8823,18.698 Z M4.2092,9.5563 C3.9735,9.4511 3.7331,9.2107 3.6327,8.6867 C3.5923,8.4764 3.627,8.3083 3.7219,8.2613 C3.7801,8.2313 3.8787,8.2416 3.982,8.3158 C4.0064,8.7402 4.0834,9.1572 4.2092,9.5563 L4.2092,9.5563 Z M12.0279,9.5713 C12.1537,9.176 12.2316,8.7618 12.2579,8.3402 C12.3734,8.2435 12.4861,8.2284 12.5509,8.2613 C12.6458,8.3083 12.6805,8.4764 12.6401,8.6867 C12.534,9.237 12.2739,9.4746 12.0279,9.5713 L12.0279,9.5713 Z M7.7138,3.966 C7.5776,4.8234 7.0649,5.5061 6.1841,5.9991 C5.7174,6.2602 5.2469,6.4095 4.9333,6.4884 C5.322,4.9023 6.2245,4.0872 7.7138,3.966 L7.7138,3.966 Z M8.1204,3.1876 C7.6838,3.1876 7.2809,3.2345 6.9119,3.3256 C7.048,2.8072 7.5382,2.4232 8.1204,2.4232 C8.7036,2.4232 9.1938,2.8072 9.3299,3.3256 C8.9609,3.2345 8.558,3.1876 8.1204,3.1876 L8.1204,3.1876 Z M8.528,3.966 C10.0164,4.0872 10.9198,4.9023 11.3076,6.4884 C10.9949,6.4095 10.5244,6.2602 10.0577,5.9991 C9.1769,5.5061 8.6641,4.8234 8.528,3.966 L8.528,3.966 Z M9.7647,14.1239 C9.7065,14.7587 8.9919,15.262 8.1204,15.262 C7.2499,15.262 6.5353,14.7587 6.4771,14.1239 C6.8189,13.7097 6.9898,13.2026 6.9954,12.5256 C7.3626,12.6495 7.742,12.7153 8.1204,12.7153 C8.4998,12.7153 8.8792,12.6495 9.2464,12.5256 C9.2511,13.2026 9.4229,13.7097 9.7647,14.1239 L9.7647,14.1239 Z M8.1204,11.9537 C7.2931,11.9537 6.4527,11.5555 5.8141,10.8606 C5.0365,10.0136 4.6487,8.8426 4.7511,7.6481 C4.7605,7.5288 4.7736,7.4133 4.7877,7.2997 C5.0675,7.2481 5.7944,7.0837 6.5334,6.6752 C7.2584,6.2743 7.7918,5.7521 8.1204,5.1286 C8.45,5.7521 8.9834,6.2743 9.7074,6.6752 C10.4465,7.0837 11.1742,7.2481 11.4541,7.2997 C11.4682,7.4133 11.4804,7.5288 11.4907,7.6481 C11.5931,8.8426 11.2052,10.0136 10.4268,10.8606 C9.7891,11.5555 8.9487,11.9537 8.1204,11.9537 L8.1204,11.9537 Z M2.3583,9.606 C2.3583,7.5758 2.8964,5.3972 3.7989,3.7792 C4.5473,2.4373 5.9042,0.8371 8.1204,0.8371 C10.3375,0.8371 11.6945,2.4373 12.4429,3.7792 C13.3454,5.3972 13.8834,7.5758 13.8834,9.606 L13.8834,15.3878 C13.6459,15.262 13.3745,15.1418 13.0646,15.0329 C10.4981,14.1295 9.9845,13.691 10.007,12.4279 L10.007,12.4204 L10.007,12.1753 C10.362,11.965 10.6934,11.6964 10.9874,11.3762 C11.2606,11.0785 11.4926,10.7479 11.6813,10.393 C12.2936,10.3902 13.1491,10.0634 13.3876,8.8313 C13.5172,8.158 13.2167,7.7439 12.8927,7.5814 C12.6918,7.48 12.4636,7.4603 12.242,7.5148 C12.0607,5.5465 11.3517,4.244 10.1281,3.6186 L10.1281,3.6158 C10.1281,2.5387 9.2276,1.6616 8.1204,1.6616 C7.0142,1.6616 6.1137,2.5387 6.1137,3.6158 L6.1137,3.6186 C4.891,4.2431 4.182,5.5437 3.9998,7.5072 C3.7885,7.4622 3.5716,7.4838 3.3791,7.5814 C3.0551,7.7439 2.7556,8.158 2.8852,8.8313 C3.119,10.0427 3.9501,10.3789 4.5595,10.393 C4.7483,10.747 4.9811,11.0785 5.2535,11.3762 C5.5483,11.6964 5.8798,11.965 6.2339,12.1753 L6.2339,12.4204 L6.2339,12.4279 C6.2573,13.691 5.7427,14.1295 3.1772,15.0329 C2.8673,15.1418 2.5959,15.262 2.3583,15.3878 L2.3583,9.606 Z M14.645,15.9015 L14.645,9.606 C14.645,7.4518 14.0703,5.1352 13.1078,3.4092 C11.8926,1.2287 10.1676,0.0755 8.1204,0.0755 C6.0742,0.0755 4.3492,1.2287 3.134,3.4092 C2.1715,5.1352 1.5968,7.4518 1.5968,9.606 L1.5968,15.9015 C0.6568,16.7138 0.6784,17.5974 0.6962,17.7909 L0.6962,19.0783 C0.6962,19.2887 0.8671,19.4596 1.0765,19.4596 L15.1643,19.4596 C15.3747,19.4596 15.5456,19.2887 15.5456,19.0783 L15.5456,17.7909 C15.5625,17.5974 15.585,16.7138 14.645,15.9015 L14.645,15.9015 Z" id="Fill-4079" fill="#3FBBC4"></path>
                <path d="M8.8437,9.7317 C8.6333,9.7317 8.4634,9.9017 8.4634,10.112 C8.4634,10.1749 8.3328,10.2895 8.1206,10.2895 C7.9084,10.2895 7.7788,10.1749 7.7788,10.112 C7.7788,9.9017 7.6079,9.7317 7.3975,9.7317 C7.1881,9.7317 7.0172,9.9017 7.0172,10.112 C7.0172,10.6294 7.5121,11.0501 8.1206,11.0501 C8.7291,11.0501 9.224,10.6294 9.224,10.112 C9.224,9.9017 9.054,9.7317 8.8437,9.7317" id="Fill-4080" fill="#3FBBC4"></path>
            </g>
        </g>
    </g>
</svg>